<?xml version="1.0" standalone="no"?>
<!DOCTYPE svg PUBLIC "-//W3C//DTD SVG 20010904//EN"
 "http://www.w3.org/TR/2001/REC-SVG-20010904/DTD/svg10.dtd">
<svg version="1.0" xmlns="http://www.w3.org/2000/svg"
 width="325.000000pt" height="169.000000pt" viewBox="0 0 325.000000 169.000000"
 preserveAspectRatio="xMidYMid meet">

<g transform="translate(0.000000,169.000000) scale(0.100000,-0.100000)"
fill="#000000" stroke="none">
<path d="M737 1619 c-94 -22 -169 -87 -213 -182 -24 -53 -26 -68 -22 -146 6
-119 38 -179 129 -238 98 -63 125 -89 153 -145 28 -57 32 -97 15 -149 -29 -85
-95 -131 -213 -151 l-66 -11 0 -38 c0 -45 6 -46 105 -28 162 30 258 137 258
289 0 54 -6 81 -30 133 -28 59 -39 70 -131 136 -112 80 -131 107 -139 201 -12
132 62 225 196 246 41 7 41 7 41 50 0 49 -6 51 -83 33z"/>
<path d="M920 1126 l0 -496 130 0 130 0 0 35 0 35 -95 0 -96 0 3 118 3 117 68
3 67 3 0 34 0 34 -67 3 -68 3 -3 253 c-2 193 0 252 10 252 7 0 47 -17 91 -37
l78 -37 24 30 c13 16 24 32 25 35 1 18 -180 91 -258 104 l-42 7 0 -496z"/>
<path d="M363 1494 c-113 -77 -215 -200 -274 -330 -47 -104 -63 -184 -62 -324
1 -143 21 -238 73 -340 l32 -63 30 30 29 30 -20 34 c-32 55 -61 176 -67 284
-8 126 10 216 65 329 37 77 145 220 166 221 6 0 11 -68 13 -177 l2 -178 -60 0
-60 0 0 -40 0 -40 60 0 60 0 0 -150 0 -150 40 0 40 0 0 450 c0 248 -3 450 -7
450 -5 -1 -32 -17 -60 -36z"/>
<path d="M1298 1408 l-27 -35 59 -62 c38 -40 74 -91 100 -144 59 -122 74 -190
74 -337 -1 -107 -5 -136 -27 -206 -32 -96 -84 -180 -158 -253 -60 -60 -188
-147 -271 -186 l-53 -25 -3 160 -2 160 -35 0 -35 0 0 -209 0 -209 43 9 c165
36 331 129 431 240 169 188 242 495 175 742 -28 106 -106 239 -196 337 l-49
53 -26 -35z"/>
<path d="M1633 1239 c-22 -50 -10 -66 14 -19 l12 24 10 -27 c6 -15 17 -27 25
-27 12 0 11 9 -7 50 -12 27 -24 50 -28 50 -3 0 -15 -23 -26 -51z"/>
<path d="M2020 1280 c0 -5 5 -10 10 -10 6 0 10 5 10 10 0 6 -4 10 -10 10 -5 0
-10 -4 -10 -10z"/>
<path d="M2230 1280 c0 -5 5 -10 10 -10 6 0 10 5 10 10 0 6 -4 10 -10 10 -5 0
-10 -4 -10 -10z"/>
<path d="M1720 1240 c0 -11 7 -20 15 -20 21 0 19 -18 -2 -23 -11 -3 -7 -5 10
-6 21 -1 27 4 27 19 0 11 -7 20 -15 20 -8 0 -15 5 -15 11 0 6 7 9 15 5 8 -3
15 -1 15 4 0 6 -11 10 -25 10 -18 0 -25 -5 -25 -20z"/>
<path d="M1790 1240 c0 -11 7 -20 15 -20 21 0 19 -18 -2 -23 -11 -3 -7 -5 10
-6 21 -1 27 4 27 19 0 11 -7 20 -15 20 -8 0 -15 5 -15 11 0 6 7 9 15 5 8 -3
15 -1 15 4 0 6 -11 10 -25 10 -18 0 -25 -5 -25 -20z"/>
<path d="M1864 1246 c-12 -31 0 -51 31 -51 27 0 30 3 30 30 0 25 -4 30 -28 33
-17 2 -29 -2 -33 -12z m49 -32 c-3 -8 -11 -14 -18 -14 -18 0 -26 25 -12 39 14
14 38 -5 30 -25z"/>
<path d="M1954 1246 c-11 -29 1 -51 29 -54 15 -2 27 1 27 6 0 5 -8 9 -17 8
-12 -1 -18 6 -18 19 0 11 6 19 13 18 6 -2 12 2 12 7 0 16 -40 12 -46 -4z"/>
<path d="M2020 1225 c0 -19 5 -35 10 -35 6 0 10 16 10 35 0 19 -4 35 -10 35
-5 0 -10 -16 -10 -35z"/>
<path d="M2064 1246 c-3 -8 -4 -23 -2 -33 3 -15 15 -18 78 -20 41 0 67 1 58 4
-22 6 -23 17 -3 33 23 19 18 30 -15 30 -16 0 -30 -4 -30 -10 0 -5 7 -10 17
-10 14 0 14 -2 -2 -20 -25 -28 -35 -25 -35 10 0 27 -3 30 -30 30 -17 0 -33 -6
-36 -14z m46 -27 c0 -20 -15 -26 -25 -9 -9 15 3 43 15 35 5 -3 10 -15 10 -26z"/>
<path d="M2230 1225 c0 -19 5 -35 10 -35 6 0 10 16 10 35 0 19 -4 35 -10 35
-5 0 -10 -16 -10 -35z"/>
<path d="M2271 1246 c-7 -8 -10 -24 -6 -36 5 -17 13 -20 38 -18 28 3 32 7 32
33 0 25 -4 31 -26 33 -14 2 -31 -4 -38 -12z m46 -12 c8 -21 -13 -42 -28 -27
-13 13 -5 43 11 43 6 0 13 -7 17 -16z"/>
<path d="M2360 1226 c0 -20 5 -36 10 -36 6 0 10 11 10 25 0 16 6 25 15 25 9 0
15 -9 15 -25 0 -14 5 -25 11 -25 6 0 9 14 7 33 -3 28 -7 32 -35 35 -32 3 -33
2 -33 -32z"/>
<path d="M2450 1245 c-20 -24 -3 -55 31 -55 16 0 29 4 29 9 0 5 -9 7 -20 4
-11 -3 -20 0 -20 6 0 6 12 11 26 11 20 0 25 4 20 16 -3 9 -6 18 -6 20 0 11
-49 2 -60 -11z m45 -5 c3 -5 -3 -10 -15 -10 -12 0 -18 5 -15 10 3 6 10 10 15
10 5 0 12 -4 15 -10z"/>
<path d="M1680 1050 l0 -50 35 0 35 0 -1 53 -2 52 -6 -42 c-4 -24 -10 -45 -13
-49 -14 -14 -28 10 -28 47 0 21 -4 39 -10 39 -5 0 -10 -22 -10 -50z"/>
<path d="M1860 1050 c0 -33 4 -50 13 -50 8 0 11 15 9 50 -5 65 -22 65 -22 0z"/>
<path d="M1778 1078 c-10 -25 4 -78 19 -78 12 0 13 3 3 15 -6 8 -9 22 -6 32 7
23 -8 52 -16 31z"/>
<path d="M2182 1048 c2 -23 8 -43 14 -45 7 -2 10 11 8 34 -3 53 -3 53 -15 53
-6 0 -9 -17 -7 -42z"/>
<path d="M1820 1035 c0 -19 5 -35 10 -35 6 0 10 16 10 35 0 19 -4 35 -10 35
-5 0 -10 -16 -10 -35z"/>
<path d="M1900 1035 c0 -19 5 -35 10 -35 6 0 10 16 10 35 0 19 -4 35 -10 35
-5 0 -10 -16 -10 -35z"/>
<path d="M1940 1060 c0 -5 7 -10 17 -10 15 0 15 -1 0 -18 -10 -10 -17 -22 -17
-25 0 -4 33 -7 73 -6 42 1 62 4 49 8 l-24 6 21 19 c30 27 26 36 -14 36 -19 0
-35 -4 -35 -10 0 -5 7 -10 15 -10 18 0 19 -12 3 -28 -14 -14 -58 -16 -58 -3 0
5 7 14 15 21 23 19 18 30 -15 30 -16 0 -30 -4 -30 -10z"/>
<path d="M2094 1056 c-11 -29 1 -50 33 -57 18 -3 34 -5 36 -3 2 2 1 18 -1 37
-3 28 -8 33 -33 35 -18 2 -32 -3 -35 -12z m46 -27 c0 -20 -15 -26 -25 -9 -9
15 3 43 15 35 5 -3 10 -15 10 -26z"/>
<path d="M2231 1051 c-17 -31 -3 -53 33 -49 27 3 31 7 31 33 0 25 -4 31 -27
33 -18 2 -30 -3 -37 -17z m49 -22 c0 -20 -24 -26 -35 -9 -8 13 14 42 26 34 5
-3 9 -14 9 -25z"/>
<path d="M2320 1034 c0 -19 5 -34 10 -34 6 0 10 11 10 25 0 16 6 25 15 25 8 0
15 4 15 9 0 5 -11 9 -25 9 -22 0 -25 -5 -25 -34z"/>
<path d="M2380 1035 c0 -19 5 -35 10 -35 6 0 10 16 10 35 0 19 -4 35 -10 35
-5 0 -10 -16 -10 -35z"/>
<path d="M1713 903 c-20 -8 -15 -41 7 -53 28 -15 25 -33 -5 -28 -34 7 -32 -10
2 -18 19 -5 30 -2 40 12 12 17 11 21 -12 39 -30 25 -33 39 -4 32 13 -3 19 -1
16 6 -4 13 -26 18 -44 10z"/>
<path d="M1890 861 c0 -21 6 -44 14 -50 12 -10 14 -5 11 31 -4 60 -4 58 -15
58 -5 0 -10 -17 -10 -39z"/>
<path d="M1827 873 c-14 -13 -6 -31 16 -38 l22 -7 -25 -8 c-22 -6 -23 -8 -7
-15 17 -7 47 9 47 27 0 5 -10 13 -22 18 -18 7 -19 9 -5 9 9 1 17 6 17 11 0 11
-33 14 -43 3z"/>
<path d="M1940 861 c-5 -11 -7 -26 -4 -35 8 -20 43 -31 57 -17 8 8 5 11 -11
11 -15 0 -22 6 -22 20 0 11 7 20 16 20 8 0 12 -4 9 -10 -3 -5 1 -10 9 -10 19
0 21 11 4 28 -18 18 -46 14 -58 -7z"/>
<path d="M2043 873 c-7 -3 -13 -19 -12 -36 1 -29 2 -30 8 -8 9 34 31 39 31 7
0 -31 17 -35 22 -4 5 32 28 35 28 4 0 -14 5 -26 11 -26 6 0 9 14 7 33 -3 30
-5 32 -43 33 -22 1 -46 -1 -52 -3z"/>
<path d="M1780 840 c0 -16 5 -30 10 -30 6 0 10 14 10 30 0 17 -4 30 -10 30 -5
0 -10 -13 -10 -30z"/>
<path d="M2160 840 c0 -16 5 -30 10 -30 6 0 10 14 10 30 0 17 -4 30 -10 30 -5
0 -10 -13 -10 -30z"/>
<path d="M1690 660 c0 -49 1 -50 30 -50 17 0 30 5 30 10 0 6 -9 10 -20 10 -27
0 -25 28 3 33 l22 4 -22 2 c-13 0 -23 7 -23 15 0 8 10 17 23 19 16 3 13 5 -10
6 l-33 1 0 -50z"/>
<path d="M1797 697 c-5 -14 -2 -40 9 -75 2 -7 9 -10 14 -7 8 5 7 11 0 20 -7 8
-9 22 -6 32 7 24 -9 52 -17 30z"/>
<path d="M2180 667 c0 -43 6 -60 19 -53 10 6 0 96 -10 96 -5 0 -9 -19 -9 -43z"/>
<path d="M1853 683 c-19 -7 -16 -60 3 -67 24 -9 44 -7 44 4 0 6 -9 10 -20 10
-13 0 -20 7 -20 20 0 22 26 28 33 8 2 -7 8 -10 12 -6 10 9 -13 38 -29 37 -6 0
-17 -3 -23 -6z"/>
<path d="M1936 674 c-28 -27 -12 -64 26 -64 24 0 23 16 -2 23 -11 3 -20 10
-20 17 0 7 9 14 20 17 11 3 20 9 20 14 0 15 -27 10 -44 -7z"/>
<path d="M2018 683 c-13 -3 -18 -15 -18 -39 0 -19 5 -34 10 -34 6 0 10 14 10
31 0 38 24 35 28 -4 5 -39 22 -33 22 7 0 22 -6 36 -16 40 -9 3 -16 5 -17 5 -1
-1 -10 -3 -19 -6z"/>
<path d="M2096 674 c-19 -19 -20 -25 -3 -49 20 -26 67 -13 67 18 0 43 -35 60
-64 31z m44 -24 c0 -21 -24 -28 -35 -10 -8 14 3 30 21 30 8 0 14 -9 14 -20z"/>
<path d="M2232 678 c-21 -21 -14 -57 12 -64 33 -8 46 2 46 36 0 36 -33 53 -58
28z m41 -22 c7 -16 -1 -26 -20 -26 -7 0 -13 9 -13 20 0 23 25 27 33 6z"/>
<path d="M2323 683 c-19 -7 -16 -60 3 -67 9 -3 21 -3 27 0 7 3 3 -2 -7 -10
-15 -12 -16 -16 -5 -16 8 0 20 5 27 12 14 14 16 78 3 78 -5 0 -15 2 -23 4 -7
3 -19 2 -25 -1z m37 -33 c0 -11 -7 -20 -15 -20 -8 0 -15 9 -15 20 0 11 7 20
15 20 8 0 15 -9 15 -20z"/>
<path d="M2452 681 c-8 -5 -12 -21 -10 -37 2 -23 9 -30 31 -32 15 -2 27 1 27
7 0 6 -9 11 -20 11 -13 0 -20 7 -20 20 0 22 26 28 33 8 2 -7 8 -10 12 -6 9 9
-13 38 -29 38 -6 0 -17 -4 -24 -9z"/>
<path d="M2400 645 c0 -19 5 -35 10 -35 6 0 10 16 10 35 0 19 -4 35 -10 35 -5
0 -10 -16 -10 -35z"/>
<path d="M220 476 l0 -164 52 -47 c138 -124 295 -192 486 -209 l62 -6 0 215 0
215 -40 0 -40 0 0 -165 0 -165 -27 0 c-99 1 -267 81 -375 178 l-38 34 0 139 0
139 -40 0 -40 0 0 -164z"/>
<path d="M1640 470 c0 -46 2 -50 24 -50 31 0 56 24 56 54 0 30 -18 46 -52 46
-27 0 -28 -2 -28 -50z m53 18 c13 -20 2 -48 -18 -48 -11 0 -15 10 -15 36 0 37
14 42 33 12z"/>
<path d="M1820 476 c0 -25 5 -48 11 -51 15 -10 16 -6 11 48 -5 60 -22 62 -22
3z"/>
<path d="M1870 472 c0 -29 4 -52 10 -52 6 0 7 19 3 48 -8 64 -13 66 -13 4z"/>
<path d="M1907 500 c-3 -11 -1 -20 4 -20 5 0 9 2 9 4 0 2 3 11 6 20 3 9 2 16
-4 16 -5 0 -12 -9 -15 -20z"/>
<path d="M2076 503 c-3 -10 -1 -34 3 -53 8 -30 9 -31 10 -9 1 14 4 29 8 33 4
3 7 15 8 26 2 25 -22 27 -29 3z"/>
<path d="M2580 510 c0 -5 5 -10 10 -10 6 0 10 5 10 10 0 6 -4 10 -10 10 -5 0
-10 -4 -10 -10z"/>
<path d="M1735 470 c-4 -12 -1 -27 5 -35 14 -17 60 -20 60 -4 0 6 -7 9 -15 5
-18 -7 -41 29 -24 40 6 3 16 1 22 -5 16 -16 27 -14 21 4 -9 23 -61 19 -69 -5z"/>
<path d="M1953 455 c0 -22 2 -30 4 -17 2 12 2 30 0 40 -3 9 -5 -1 -4 -23z"/>
<path d="M1991 453 c1 -37 2 -37 8 -8 3 17 13 30 21 30 8 0 18 -13 21 -30 6
-29 7 -29 8 8 1 35 -1 37 -29 37 -28 0 -30 -2 -29 -37z"/>
<path d="M2124 476 c-12 -31 0 -51 31 -51 27 0 30 4 33 33 3 30 1 32 -28 32
-17 0 -33 -6 -36 -14z m49 -10 c6 -16 -16 -40 -26 -29 -4 3 -7 15 -7 25 0 21
25 24 33 4z"/>
<path d="M2210 455 c0 -19 5 -35 10 -35 6 0 10 11 10 25 0 13 8 29 18 34 14 9
13 10 -10 11 -25 0 -28 -3 -28 -35z"/>
<path d="M2281 453 c1 -37 2 -37 8 -8 3 17 13 30 21 30 8 0 17 -13 21 -30 l6
-30 4 29 c6 41 26 44 38 4 l9 -33 1 38 1 37 -55 0 -55 0 1 -37z"/>
<path d="M2414 476 c-12 -31 1 -51 34 -54 31 -3 32 -2 32 32 0 33 -2 36 -30
36 -17 0 -33 -6 -36 -14z m46 -16 c0 -11 -7 -20 -15 -20 -15 0 -21 21 -8 33
12 13 23 7 23 -13z"/>
<path d="M2513 483 c21 -6 22 -17 2 -33 -23 -19 -18 -30 15 -30 17 0 30 5 30
10 0 6 -7 10 -17 10 -15 0 -15 1 0 18 24 26 21 32 -15 31 -18 -1 -25 -3 -15
-6z"/>
<path d="M2580 455 c0 -19 5 -35 10 -35 6 0 10 16 10 35 0 19 -4 35 -10 35 -5
0 -10 -16 -10 -35z"/>
<path d="M2617 471 c-7 -29 15 -54 44 -49 19 2 24 9 24 33 0 26 -4 30 -31 33
-24 2 -33 -1 -37 -17z m50 -7 c9 -23 -11 -38 -26 -20 -13 16 -7 36 10 36 5 0
12 -7 16 -16z"/>
<path d="M2710 456 c0 -42 17 -49 22 -8 4 33 22 32 26 -3 5 -37 24 -30 20 8
-3 28 -7 32 -35 35 -32 3 -33 2 -33 -32z"/>
<path d="M2796 474 c-9 -24 12 -54 39 -54 14 0 25 5 25 10 0 6 -8 10 -17 8
-12 -2 -19 4 -21 20 -4 24 7 29 26 10 13 -13 27 -5 17 11 -10 17 -62 13 -69
-5z"/>
</g>
</svg>
