<?xml version="1.0" encoding="UTF-8"?>
<svg version="1.1" xmlns="http://www.w3.org/2000/svg" width="672" height="172">
<path d="M0 0 C2.42960468 1.89789788 4.73081925 3.86798097 7.0078125 5.9453125 C7.61625 6.46222656 8.2246875 6.97914062 8.8515625 7.51171875 C20.00349841 17.624497 28.23785148 34.02991064 30.0078125 48.9453125 C30.07241469 51.06943246 30.09392329 53.19534155 30.0703125 55.3203125 C30.06128906 56.37992187 30.05226562 57.43953125 30.04296875 58.53125 C30.02556641 59.72621094 30.02556641 59.72621094 30.0078125 60.9453125 C28.0078125 57.9453125 28.0078125 57.9453125 26.74609375 55.67578125 C23.2512308 49.44247774 19.53475235 44.20878243 13.0078125 40.9453125 C11.88666646 44.101668 11.88666646 44.101668 12.0078125 47.9453125 C13.564974 49.98058838 15.30660949 51.5512632 17.21875 53.25390625 C21.98964307 57.7643794 22.79267396 63.40667771 23.3203125 69.6328125 C23.23691504 75.92336376 20.5296541 81.49949565 17.2578125 86.7578125 C10.26155152 93.5597329 3.68555835 95.31991246 -5.8828125 95.2265625 C-11.98065464 94.67499889 -16.45192353 92.59559532 -20.6171875 88.1328125 C-21.4009375 87.4109375 -22.1846875 86.6890625 -22.9921875 85.9453125 C-26.73579091 86.00260248 -26.73579091 86.00260248 -29.9921875 86.9453125 C-27.18893983 93.11245737 -21.59598235 97.31502435 -15.53125 100.05859375 C-6.24529618 103.14902948 3.02009607 102.92516732 12.0078125 98.9453125 C14.20363079 97.5256024 16.21371244 96.02420893 18.21875 94.34765625 C20.06032919 92.90414767 21.88739388 91.92145235 24.0078125 90.9453125 C19.42381727 106.95329584 5.6885962 118.91341288 -8.23876953 126.97900391 C-25.00616313 136.21951405 -47.45986742 138.36238083 -65.91796875 133.11328125 C-76.73920367 129.00203698 -86.39680561 123.78699486 -94.9921875 115.9453125 C-95.600625 115.42839844 -96.2090625 114.91148437 -96.8359375 114.37890625 C-108.88153538 103.45573908 -117.03480627 86.20293652 -118.19750977 70.10205078 C-118.95572698 46.85910562 -115.02123972 27.51498937 -98.9921875 9.9453125 C-98.47527344 9.336875 -97.95835938 8.7284375 -97.42578125 8.1015625 C-72.83990362 -19.01068351 -28.9046404 -19.8483562 0 0 Z M-74.3671875 33.8203125 C-79.10534281 42.93214963 -80.4165033 52.0142111 -77.9296875 62.0078125 C-75.09213751 70.45416458 -68.80782185 77.654376 -60.9921875 81.9453125 C-59.3421875 82.2753125 -57.6921875 82.6053125 -55.9921875 82.9453125 C-56.6521875 87.2353125 -57.3121875 91.5253125 -57.9921875 95.9453125 C-59.57 95.4503125 -59.57 95.4503125 -61.1796875 94.9453125 C-64.38092107 94.10564468 -66.7332883 93.74780346 -69.9921875 93.9453125 C-70.3221875 96.2553125 -70.6521875 98.5653125 -70.9921875 100.9453125 C-66.9324573 102.45590978 -64.44608083 102.9453125 -59.9921875 102.9453125 C-60.6521875 106.9053125 -61.3121875 110.8653125 -61.9921875 114.9453125 C-58.08155526 116.41578586 -58.08155526 116.41578586 -53.9921875 116.9453125 C-53.6621875 115.7078125 -53.3321875 114.4703125 -52.9921875 113.1953125 C-52.8065625 112.49921875 -52.6209375 111.803125 -52.4296875 111.0859375 C-51.85869401 108.65629389 -51.85869401 108.65629389 -51.9921875 104.9453125 C-50.414375 105.4403125 -50.414375 105.4403125 -48.8046875 105.9453125 C-45.60345393 106.78498032 -43.2510867 107.14282154 -39.9921875 106.9453125 C-39.6621875 104.6353125 -39.3321875 102.3253125 -38.9921875 99.9453125 C-43.0519177 98.43471522 -45.53829417 97.9453125 -49.9921875 97.9453125 C-49.3321875 93.6553125 -48.6721875 89.3653125 -47.9921875 84.9453125 C-46.5484375 85.0278125 -45.1046875 85.1103125 -43.6171875 85.1953125 C-33.94033881 85.12716568 -27.09251203 81.10830014 -20.1953125 74.50390625 C-14.47764587 67.8637083 -12.41538434 60.55031485 -11.9921875 51.9453125 C-16.08963155 53.24872956 -17.82098525 54.53676954 -20.0546875 58.1953125 C-20.56128906 58.9996875 -21.06789062 59.8040625 -21.58984375 60.6328125 C-22.05261719 61.3959375 -22.51539063 62.1590625 -22.9921875 62.9453125 C-27.54840013 70.34915802 -31.95474573 74.29958831 -40.34375 76.50390625 C-46.96634822 77.60767262 -53.23686585 76.58215521 -59.10546875 73.30859375 C-64.37164067 69.50343019 -68.86650923 64.44923138 -69.9921875 57.9453125 C-70.69089897 50.21512369 -70.45087947 43.5073987 -65.9921875 36.9453125 C-61.08848688 31.14900278 -55.50724408 28.02702519 -47.9921875 26.9453125 C-40.63258259 26.68884142 -34.03672322 28.48137923 -28.38671875 33.3203125 C-27.20794083 34.48258092 -26.09198264 35.70804296 -24.9921875 36.9453125 C-23.0121875 36.2853125 -21.0321875 35.6253125 -18.9921875 34.9453125 C-18.57301335 31.03504118 -18.57301335 31.03504118 -20.609375 28.9453125 C-29.68758416 20.90371545 -37.15612672 18.17694837 -49.375 18.5703125 C-60.29222391 19.70211973 -67.52045646 25.5321644 -74.3671875 33.8203125 Z M2.0078125 21.9453125 C1.00608786 26.99808467 0.00931255 32.05179862 -0.98291016 37.10644531 C-1.32107219 38.82546266 -1.66057971 40.54421589 -2.00146484 42.26269531 C-2.491508 44.73434157 -2.97668783 47.20690051 -3.4609375 49.6796875 C-3.61405396 50.44649841 -3.76717041 51.21330933 -3.92492676 52.00335693 C-4.58740308 55.40894986 -4.9921875 58.4599974 -4.9921875 61.9453125 C-2.6821875 62.2753125 -0.3721875 62.6053125 2.0078125 62.9453125 C3.39834441 58.25723351 4.55306523 53.60396543 5.515625 48.8046875 C5.64597137 48.15582581 5.77631775 47.50696411 5.91061401 46.83843994 C6.18254845 45.48079238 6.45305215 44.12285752 6.72216797 42.76464844 C7.13466883 40.685958 7.55337376 38.60858193 7.97265625 36.53125 C8.23734953 35.20580307 8.50168525 33.88028468 8.765625 32.5546875 C9.0042627 31.35811523 9.24290039 30.16154297 9.48876953 28.92871094 C10.09351371 25.95741406 10.09351371 25.95741406 10.0078125 22.9453125 C7.3678125 22.6153125 4.7278125 22.2853125 2.0078125 21.9453125 Z M-26.9921875 45.9453125 C-32.03096583 51.26402296 -36.17672157 58.6887345 -36.0546875 66.1328125 C-36.0340625 67.3909375 -36.0134375 68.6490625 -35.9921875 69.9453125 C-31.07324759 67.08757611 -28.81073016 64.58706126 -25.9921875 59.5078125 C-21.96391283 52.60042475 -18.79422181 48.96724483 -11.1796875 46.1328125 C-8.85340144 45.2845667 -8.85340144 45.2845667 -6.9921875 43.9453125 C-5.86431926 41.075883 -5.93971719 39.09353084 -5.9921875 35.9453125 C-13.73504209 35.9453125 -21.45647821 40.90926343 -26.9921875 45.9453125 Z " fill="#C61E35" transform="translate(129.9921875,25.0546875)"/>
<path d="M0 0 C3.06273831 -0.05410136 6.12451452 -0.09372225 9.1875 -0.125 C10.48397461 -0.15013672 10.48397461 -0.15013672 11.80664062 -0.17578125 C20.74397392 -0.24426656 20.74397392 -0.24426656 24 2 C26.86782469 7.75451665 28.36957315 13.74660848 29.91796875 19.96484375 C30.18007645 20.99815323 30.44218414 22.03146271 30.7122345 23.09608459 C31.54270888 26.3752231 32.36521456 29.65629953 33.1875 32.9375 C33.75142694 35.17005485 34.31587453 37.40247826 34.88085938 39.63476562 C36.25993669 45.08833666 37.63248863 50.54351795 39 56 C39.22272079 55.30324661 39.44544159 54.60649323 39.6749115 53.8886261 C41.32382902 48.73096258 42.97485197 43.57398754 44.62890625 38.41796875 C46.04640446 33.99369207 47.45420015 29.56660758 48.84809875 25.13485718 C49.4579598 23.19764796 50.07044961 21.2612903 50.68383789 19.32519531 C51.47045158 16.84040535 52.25228673 14.35409696 53.02905273 11.86621094 C53.38813721 10.73602539 53.74722168 9.60583984 54.1171875 8.44140625 C54.43284668 7.43795166 54.74850586 6.43449707 55.07373047 5.40063477 C56 3 56 3 58 1 C62.56142751 -0.7543952 67.8664974 -0.62714983 72.49920654 0.73464966 C75.57406216 2.29046371 75.98909563 3.27389988 77.11035156 6.47607422 C77.43169067 7.37501404 77.75302979 8.27395386 78.08410645 9.20013428 C78.53747375 10.58606781 78.53747375 10.58606781 79 12 C79.27807495 12.84322815 79.5561499 13.6864563 79.84265137 14.55523682 C80.67086082 17.15600042 81.45811391 19.76609583 82.234375 22.3828125 C82.51726379 23.32309296 82.80015259 24.26337341 83.09161377 25.23214722 C83.98200492 28.19517282 84.86610868 31.16002977 85.75 34.125 C86.35765561 36.15116687 86.96572483 38.17720974 87.57421875 40.203125 C89.05425832 45.13399802 90.52866765 50.06652216 92 55 C94.18338116 48.74595017 95.98758177 42.46351048 97.59375 36.0390625 C98.0711908 34.16786057 98.5490679 32.29676992 99.02734375 30.42578125 C99.76914146 27.5104126 100.50768066 24.59434337 101.23876953 21.67626953 C101.95193888 18.83640358 102.67804674 16.00010486 103.40625 13.1640625 C103.72982483 11.85159042 103.72982483 11.85159042 104.05993652 10.51260376 C104.27025513 9.701008 104.48057373 8.88941223 104.69726562 8.05322266 C104.96682068 6.98474594 104.96682068 6.98474594 105.24182129 5.89468384 C106.14043591 3.64905156 107.1315679 2.52302707 109 1 C111.76565382 0.07811539 113.38283702 -0.11785222 116.23046875 -0.09765625 C117.43413086 -0.09282227 117.43413086 -0.09282227 118.66210938 -0.08789062 C119.91217773 -0.07532227 119.91217773 -0.07532227 121.1875 -0.0625 C122.4549707 -0.05573242 122.4549707 -0.05573242 123.74804688 -0.04882812 C125.83206155 -0.03705403 127.91603977 -0.0191189 130 0 C129.33956357 6.53791623 127.43258298 12.54862116 125.46484375 18.80078125 C124.92942711 20.52460274 124.92942711 20.52460274 124.38319397 22.2832489 C123.23963016 25.96124524 122.08876513 29.63690787 120.9375 33.3125 C120.19025592 35.71013091 119.44350674 38.10791612 118.69726562 40.50585938 C117.58277738 44.0865659 116.4675749 47.66703768 115.34945679 51.24661255 C113.44857563 57.3335403 111.55947431 63.42376052 109.69189453 69.52099609 C109.32391251 70.72217575 108.95593048 71.92335541 108.57679749 73.16093445 C107.87556206 75.45311152 107.17582157 77.7457466 106.47776794 80.03889465 C106.16614212 81.05755112 105.8545163 82.07620758 105.53344727 83.12573242 C105.26041275 84.02192795 104.98737823 84.91812347 104.70606995 85.84147644 C104 88 104 88 103 90 C96.4 90 89.8 90 83 90 C81.47659901 85.3133197 79.95530093 80.6259936 78.4375 75.9375 C78.21168243 75.24025818 77.98586487 74.54301636 77.75320435 73.824646 C74.40722521 63.48285318 71.15589644 53.11809756 68.07006836 42.69506836 C67.80846924 41.81858643 67.54687012 40.94210449 67.27734375 40.0390625 C66.94077759 38.89751709 66.94077759 38.89751709 66.59741211 37.73291016 C66.1392005 35.99318858 66.1392005 35.99318858 65 35 C64.78924332 35.6742955 64.57848663 36.348591 64.36134338 37.0433197 C62.37807984 43.38664338 60.39184538 49.72902802 58.40223789 56.07036495 C57.37937977 59.33081919 56.35768873 62.59162973 55.33862305 65.85327148 C54.16798113 69.59987416 52.99233796 73.34489781 51.81640625 77.08984375 C51.44971329 78.26586655 51.08302032 79.44188934 50.70521545 80.65354919 C50.3649382 81.73459427 50.02466095 82.81563934 49.67407227 83.92944336 C49.3742897 84.88652695 49.07450714 85.84361053 48.76564026 86.82969666 C48 89 48 89 47 90 C45.5112814 90.08669432 44.018555 90.10703494 42.52734375 90.09765625 C41.62822266 90.09443359 40.72910156 90.09121094 39.80273438 90.08789062 C38.38444336 90.07532227 38.38444336 90.07532227 36.9375 90.0625 C35.98810547 90.05798828 35.03871094 90.05347656 34.06054688 90.04882812 C31.70696935 90.0370011 29.35351523 90.02052025 27 90 C9.02051947 32.2603839 9.02051947 32.2603839 3.375 13.5 C3.01607666 12.3126123 2.65715332 11.12522461 2.28735352 9.90185547 C1.97338623 8.85143066 1.65941895 7.80100586 1.3359375 6.71875 C1.07345215 5.84154297 0.8109668 4.96433594 0.54052734 4.06054688 C0 2 0 2 0 0 Z " fill="#E21422" transform="translate(530,38)"/>
<path d="M0 0 C14 0 14 0 19 3 C20.60229492 4.60302734 20.60229492 4.60302734 21.98046875 6.3359375 C22.75886108 7.30382202 22.75886108 7.30382202 23.55297852 8.29125977 C24.09237061 8.97889404 24.6317627 9.66652832 25.1875 10.375 C25.75847412 11.09034912 26.32944824 11.80569824 26.91772461 12.54272461 C31.16140929 17.87803236 35.32085582 23.27730347 39.453125 28.69921875 C42.82499092 33.09899451 46.3118648 37.40771377 49.80297852 41.71313477 C50.27662842 42.30022217 50.75027832 42.88730957 51.23828125 43.4921875 C51.8576355 44.25571533 51.8576355 44.25571533 52.48950195 45.03466797 C54.74012965 47.96299396 56.85331666 50.99464332 59 54 C59.33 36.18 59.66 18.36 60 0 C66.27 0 72.54 0 79 0 C79 29.7 79 59.4 79 90 C73.72 90 68.44 90 63 90 C57.36655949 84.36655949 57.36655949 84.36655949 55.125 81.609375 C54.62154053 80.99118896 54.11808105 80.37300293 53.59936523 79.73608398 C53.07157471 79.08067627 52.54378418 78.42526855 52 77.75 C51.43676025 77.05398682 50.87352051 76.35797363 50.29321289 75.64086914 C45.76833906 70.02012252 41.35793807 64.31601851 37.01757812 58.55175781 C31.49164252 51.23932496 25.73598069 44.16997586 20 37 C20 54.49 20 71.98 20 90 C13.4 90 6.8 90 0 90 C0 60.3 0 30.6 0 0 Z " fill="#E21623" transform="translate(345,38)"/>
<path d="M0 0 C8.8314428 8.07590111 13.29753517 18.98271285 14.01953125 30.7578125 C14.37133592 44.70334959 11.28123208 57.52170533 1.6171875 68.06640625 C-9.54745448 78.3211545 -22.86066722 81.04583933 -37.4921875 80.59765625 C-50.1684751 79.88378647 -60.36890758 74.63765987 -69.0078125 65.44140625 C-78.43345853 53.94834258 -80.52409606 40.64795418 -79.1953125 26.25390625 C-76.82919756 13.6032576 -70.36267443 3.07794789 -59.8671875 -4.40625 C-41.03027975 -15.88322823 -17.01561124 -13.53376908 0 0 Z M-51.5703125 14.62890625 C-57.00170566 23.4026952 -58.63637919 32.85784337 -56.6640625 42.98046875 C-54.44554046 50.96232522 -51.33392396 55.96517394 -44.1953125 60.2734375 C-37.7880012 63.41452175 -29.50715565 63.31654168 -22.8203125 61.06640625 C-16.94169562 58.49901031 -13.30761744 53.7272701 -10.1953125 48.25390625 C-6.88717005 38.66029313 -7.12799528 29.0499793 -11.00390625 19.6640625 C-13.6527974 14.30548598 -17.10469824 10.43744625 -22.62890625 7.953125 C-33.57595974 4.97059444 -43.5646272 6.62322095 -51.5703125 14.62890625 Z " fill="#E21421" transform="translate(513.1953125,48.74609375)"/>
<path d="M0 0 C0.495 0.99 0.495 0.99 1 2 C-0.1796875 4.56640625 -0.1796875 4.56640625 -1.875 7.5625 C-2.42929687 8.55378906 -2.98359375 9.54507813 -3.5546875 10.56640625 C-5 13 -5 13 -6 14 C-10.53146892 14.47202801 -13.2372686 14.04847333 -17.3125 12 C-22.11189055 9.6907042 -26.73308714 8.99028095 -32 10 C-34.71397865 11.66722598 -35.78862368 12.41116597 -36.875 15.4375 C-37.01955063 18.40078788 -36.57697734 19.52118875 -35 22 C-33.2548148 23.2022378 -33.2548148 23.2022378 -31.125 24 C-30.32449219 24.33128906 -29.52398437 24.66257813 -28.69921875 25.00390625 C-25.80302494 26.07268978 -22.88132636 27.00845974 -19.9375 27.9375 C-11.47675966 30.71116075 -5.08083071 34.54588653 0 42 C3.62442618 49.413599 2.59300351 57.99518671 0.04296875 65.609375 C-3.39993602 73.50097695 -8.90807033 78.4514207 -16.8125 81.75 C-27.90145818 85.14037404 -40.61046763 83.85886401 -51 79 C-54.71598691 77.00823102 -58.01332305 74.98667695 -61 72 C-60.62718021 68.6374523 -59.05313525 66.12408975 -57.25 63.3125 C-56.76015625 62.52488281 -56.2703125 61.73726563 -55.765625 60.92578125 C-54 59 -54 59 -51.75390625 58.015625 C-47.22600723 57.98993479 -43.67553801 60.36260818 -39.79101562 62.46289062 C-34.93039021 64.94056327 -31.46337554 65.46104435 -26 65 C-23.63706998 63.84367254 -21.85016245 62.85016245 -20 61 C-19.34352058 55.61466018 -19.34352058 55.61466018 -21.48046875 50.91796875 C-24.93988328 48.28452296 -28.48892566 47.33437846 -32.625 46.125 C-42.31113717 43.06846407 -50.92523917 40.20722738 -56.16015625 30.9296875 C-58.89798486 24.63904875 -59.1159746 16.99688729 -57.28125 10.42578125 C-53.01166852 0.28552524 -47.04062434 -3.87593148 -37 -8 C-24.74794376 -11.34146988 -9.89953413 -7.81542168 0 0 Z " fill="#AB224F" transform="translate(333,46)"/>
<path d="M0 0 C1.2640913 1.0668572 2.51988506 2.14413909 3.75 3.25 C2.35073881 6.25807357 0.69941211 8.8027355 -1.3125 11.4375 C-1.83972656 12.13230469 -2.36695313 12.82710937 -2.91015625 13.54296875 C-4.25 15.25 -4.25 15.25 -5.25 16.25 C-9.45917231 15.99229557 -12.2147688 15.37405215 -15.8125 13.1875 C-22.09351559 9.84497123 -30.00771155 10.07195422 -36.75390625 11.9453125 C-43.54044013 15.01019877 -47.37148554 20.48549101 -50.25 27.25 C-52.32084072 35.93602634 -52.07208506 45.09261704 -48.25 53.25 C-44.62788008 58.753376 -40.74722911 62.54580876 -34.25 64.25 C-26.6248685 65.20044132 -21.12619235 64.37443911 -14.50390625 60.44140625 C-11.89605582 59.06290646 -10.22103187 58.28645438 -7.25 58.25 C-4.57421875 60.33984375 -4.57421875 60.33984375 -1.9375 63.1875 C-0.61298828 64.59322266 -0.61298828 64.59322266 0.73828125 66.02734375 C1.40214844 66.76082031 2.06601562 67.49429688 2.75 68.25 C0.12825113 74.3808589 -5.18682701 77.79276237 -11.06640625 80.58984375 C-23.11369988 84.91332972 -37.7740714 85.27505652 -49.7421875 80.5078125 C-60.60266065 75.0606593 -68.24293415 66.02492922 -72.15625 54.60546875 C-75.86911673 41.76513797 -75.70696961 27.78874804 -69.99609375 15.56640625 C-64.48031496 5.69211017 -56.82268693 -1.56768404 -46.25 -5.75 C-30.55187896 -10.16610386 -13.47584449 -10.40166746 0 0 Z " fill="#AB224F" transform="translate(266.25,45.75)"/>
<path d="M0 0 C0.66 0.33 1.32 0.66 2 1 C-1.3 4.3 -4.6 7.6 -8 11 C-8 6.67750434 -5.85084926 5.11604454 -3 2 C-2.01 1.34 -1.02 0.68 0 0 Z " fill="#C56786" transform="translate(287,42)"/>
<path d="M0 0 C-0.66 1.98 -1.32 3.96 -2 6 C-5 6 -5 6 -7 5 C-2.25 0 -2.25 0 0 0 Z " fill="#D690A4" transform="translate(154,116)"/>
</svg>
