<?xml version="1.0" encoding="UTF-8" standalone="no"?>
<svg
   xmlns:dc="http://purl.org/dc/elements/1.1/"
   xmlns:cc="http://creativecommons.org/ns#"
   xmlns:rdf="http://www.w3.org/1999/02/22-rdf-syntax-ns#"
   xmlns:svg="http://www.w3.org/2000/svg"
   xmlns="http://www.w3.org/2000/svg"
   xmlns:sodipodi="http://sodipodi.sourceforge.net/DTD/sodipodi-0.dtd"
   xmlns:inkscape="http://www.inkscape.org/namespaces/inkscape"
   width="35.44371mm"
   height="42.523731mm"
   viewBox="0 0 35.44371 42.523731"
   version="1.1"
   id="svg8"
   inkscape:version="1.0.2 (e86c870879, 2021-01-15)"
   sodipodi:docname="drawing.svg">
  <defs
     id="defs2">
    <style
       id="style10">.cls-1{fill:#84092b;}.cls-2{fill:#fff;}</style>
  </defs>
  <sodipodi:namedview
     id="base"
     pagecolor="#ffffff"
     bordercolor="#666666"
     borderopacity="1.0"
     inkscape:pageopacity="0.0"
     inkscape:pageshadow="2"
     inkscape:zoom="1.4"
     inkscape:cx="108.73275"
     inkscape:cy="128.51143"
     inkscape:document-units="mm"
     inkscape:current-layer="layer1"
     inkscape:document-rotation="0"
     showgrid="false"
     inkscape:window-width="1440"
     inkscape:window-height="1205"
     inkscape:window-x="2385"
     inkscape:window-y="118"
     inkscape:window-maximized="0"
     fit-margin-top="0"
     fit-margin-left="0"
     fit-margin-right="0"
     fit-margin-bottom="0" />
  <metadata
     id="metadata5">
    <rdf:RDF>
      <cc:Work
         rdf:about="">
        <dc:format>image/svg+xml</dc:format>
        <dc:type
           rdf:resource="http://purl.org/dc/dcmitype/StillImage" />
        <dc:title></dc:title>
      </cc:Work>
    </rdf:RDF>
  </metadata>
  <g
     inkscape:label="Layer 1"
     inkscape:groupmode="layer"
     id="layer1"
     transform="translate(-57.574755,-111.53775)">
    <path
       class="cls-1"
       d="m 93.018467,132.79961 c 0,11.72604 -7.94955,21.26187 -17.721856,21.26187 -9.772307,0 -17.721856,-9.53583 -17.721856,-21.26187 0,-11.72604 7.949549,-21.26186 17.725494,-21.26186 9.775945,0 17.718218,9.54674 17.718218,21.26186"
       id="path16"
       style="stroke-width:0.363824" />
    <path
       class="cls-2"
       d="m 89.030958,139.11196 a 1.5971864,1.5971864 0 0 1 -0.487524,0.72764 l -0.221932,-0.2001 a 1.331595,1.331595 0 0 0 0.483885,-0.59667 c 0.116424,-0.36382 0.02911,-0.68763 -0.287421,-0.7895 -0.156444,-0.0546 -0.301973,0.0618 -0.440226,0.19283 a 4.3658852,4.3658852 0 0 1 -0.669436,0.59667 0.8295182,0.8295182 0 0 1 -0.745839,0.0946 c -0.43295,-0.14552 -0.574841,-0.67307 -0.418397,-1.17151 a 4.1366763,4.1366763 0 0 1 0.280144,-0.61122 c 0.203742,0.0546 0.363824,0.10551 0.469333,0.14189 0.06185,0.0218 0.1237,0.0509 0.09459,0.14189 -0.02911,0.091 -0.05821,0.0982 -0.283782,0.0655 -0.09823,-0.0182 -0.236486,0.0655 -0.33108,0.36382 -0.09459,0.29834 -0.04002,0.61487 0.254677,0.72765 0.211017,0.0728 0.523906,-0.30925 0.647606,-0.4475 a 1.7972894,1.7972894 0 0 1 0.505715,-0.43659 0.80768877,0.80768877 0 0 1 0.64033,-0.0437 c 0.516629,0.17464 0.669435,0.72765 0.502077,1.25519 m -3.132523,0.58212 c -0.02183,0.0655 0.05457,0.0873 0.109147,0.11279 l 2.288452,1.09147 -0.152806,0.47661 -2.324834,-1.12058 c -0.149168,-0.0691 -0.116424,-0.0655 -0.203742,0.0655 -0.03638,0.0582 -0.06913,0.13825 -0.141891,0.10551 -0.07277,-0.0328 -0.08732,-0.0982 -0.04366,-0.18192 0.04366,-0.0837 0.152806,-0.28378 0.192827,-0.36382 0.04002,-0.08 0.09823,-0.25104 0.141891,-0.36382 0.04366,-0.11279 0.09096,-0.1237 0.163721,-0.0837 0.07277,0.04 0.03638,0.10187 0,0.26195 m 1.007792,2.45217 a 0.56028861,0.56028861 0 0 1 0.214656,0.80041 1.7427159,1.7427159 0 0 1 -0.261953,0.33472 c -0.02911,0.0291 -0.02911,0.0291 -0.05457,0 l -0.996877,-0.64397 0.08004,-0.13461 c 0.320165,-0.52755 0.680351,-0.5894 1.018707,-0.36382 m -1.357063,-0.50208 a 0.47660914,0.47660914 0 0 1 0.170997,0.72765 l -0.09096,0.14916 -0.822242,-0.53118 c -0.06549,-0.0437 -0.08732,-0.0546 -0.05094,-0.11278 l 0.04002,-0.0691 a 0.49843856,0.49843856 0 0 1 0.749477,-0.18191 m 1.582633,0.0473 a 0.76402992,0.76402992 0 0 0 -1.040536,0.18919 0.72764754,0.72764754 0 0 0 -0.363824,-0.72764 0.76039168,0.76039168 0 0 0 -1.015068,0.36382 c -0.08732,0.14189 -0.149168,0.28742 -0.236485,0.42931 a 2.7796136,2.7796136 0 0 1 -0.214656,0.31289 0.96777123,0.96777123 0 0 0 -0.123701,0.15281 0.12733832,0.12733832 0 0 0 0.03638,0.18191 c 0.05457,0.0291 0.08004,0 0.160082,-0.10551 0.08004,-0.10551 0.127339,-0.12734 0.251039,-0.0473 l 0.09459,0.0655 2.081072,1.33887 c 0,0 0.178274,-0.34563 0.218294,-0.41112 0.09096,-0.13825 0.178274,-0.19646 0.26923,-0.36382 0.312888,-0.50936 0.312888,-1.1315 -0.120062,-1.41164 m -4.700603,3.3399 a 0.53482094,0.53482094 0 0 0 -0.01819,0.33472 l 0.578479,2.65591 -0.261953,0.22921 c -0.953218,-0.66216 -1.586271,-1.02234 -2.364854,-1.58263 -0.05821,-0.0437 -0.08732,-0.08 -0.156444,-0.0364 -0.127339,0.08 -0.167359,0.0655 -0.200104,0 a 0.11278537,0.11278537 0 0 1 0.05457,-0.171 c 0.109147,-0.0582 0.287421,-0.16736 0.363824,-0.22193 0.0764,-0.0546 0.200103,0 0.294697,0.0546 l 1.902798,1.3316 -0.502076,-2.23388 c -0.02911,-0.14553 -0.298336,0.12006 -0.363824,0 -0.06549,-0.12006 0,-0.10915 0.06913,-0.16372 a 3.1907345,3.1907345 0 0 0 0.509354,-0.4948 0.10550889,0.10550889 0 0 1 0.181911,0 c 0.02183,0.0364 -0.02547,0.13461 -0.09459,0.26923 m -4.183973,2.51402 c -0.167359,0.08 -0.178274,0.13098 -0.120062,0.36382 0.05821,0.23285 0.643968,2.44854 0.643968,2.44854 l -0.523906,0.13825 -0.571203,-2.23024 -0.57848,2.22296 -0.236486,0.08 -1.313403,-1.94645 0.149167,2.2266 -0.458418,0.13098 -0.167359,-2.54677 c -0.01819,-0.25832 -0.05821,-0.31653 -0.211017,-0.33108 -0.152806,-0.0146 -0.18555,-0.0473 -0.192827,-0.11642 -0.0073,-0.0691 0.0764,-0.1237 0.120062,-0.1237 0.1237,0 0.451141,0 0.560288,0 a 0.20737955,0.20737955 0 0 1 0.214657,0.11642 l 1.349786,2.05924 0.629415,-2.31756 a 0.26195311,0.26195311 0 0 1 0.189188,-0.19646 c 0.112786,-0.0291 0.363824,-0.13098 0.498439,-0.16372 0.0473,0 0.156444,0 0.170997,0.08 0.01455,0.08 -0.04002,0.0873 -0.14553,0.14189 m -3.914743,0.54938 a 0.24740016,0.24740016 0 0 0 -0.178274,0.12006 l -1.65176,2.33938 -0.338356,-0.0437 c -0.174635,-1.17152 -0.298336,-1.89916 -0.425674,-2.87057 0,-0.0691 0,-0.12007 -0.08004,-0.1419 -0.14553,-0.04 -0.160083,-0.08 -0.14553,-0.14189 a 0.10914713,0.10914713 0 0 1 0.160083,-0.0728 c 0.116423,0.0437 0.312888,0.10187 0.414759,0.13825 0.101871,0.0364 0.141891,0.14553 0.160082,0.25832 l 0.291059,2.3503 1.306128,-1.88097 c 0.08004,-0.12006 -0.287421,-0.14189 -0.254677,-0.28378 0.01819,-0.0691 0.07276,-0.0837 0.160083,-0.0546 a 4.3149499,4.3149499 0 0 0 0.687627,0.0728 c 0.09459,0 0.134614,0.0364 0.1237,0.12006 -0.01091,0.0837 -0.06549,0.0764 -0.225571,0.0946 m -3.343541,-0.88773 c -0.06185,-0.0218 -0.08368,0.0546 -0.109147,0.10915 l -1.120577,2.28481 -0.458418,-0.19282 1.138769,-2.3212 c 0.0764,-0.1528 0.06549,-0.1237 -0.05457,-0.21465 -0.05457,-0.0437 -0.134615,-0.08 -0.09823,-0.15281 0.03638,-0.0728 0.09823,-0.0873 0.181911,-0.0364 0.08368,0.0509 0.26923,0.16372 0.363824,0.20738 a 3.5436435,3.5436435 0 0 0 0.363824,0.16008 c 0.08368,0.0364 0.112785,0.0982 0.0764,0.171 -0.03638,0.0728 -0.101871,0.0364 -0.258315,0 m -2.10654,0.23284 c -0.451141,0.60031 -1.025983,0.84407 -1.637206,0.36383 a 1.8627777,1.8627777 0 0 1 -0.363824,-0.34564 c -0.05094,-0.0655 -0.04366,-0.0728 0.02547,-0.16372 l 1.367978,-1.81911 c 0.06185,-0.0837 0.09823,-0.0837 0.167359,-0.0255 l 0.298335,0.24012 c 0.767668,0.61123 0.531183,1.21881 0.134615,1.75363 m 0.458418,0.28378 c 0.520268,-0.69126 0.338356,-1.57535 -0.363824,-2.14292 -0.174635,-0.14189 -0.291059,-0.22557 -0.392929,-0.30197 -0.101871,-0.0764 -0.170998,-0.12006 -0.251039,-0.18919 a 1.9319042,1.9319042 0 0 1 -0.243762,-0.22557 1.6772276,1.6772276 0 0 0 -0.134615,-0.14189 0.11642361,0.11642361 0 0 0 -0.170997,0 c -0.05457,0.0691 0,0.11642 0.08368,0.18191 0.130976,0.12006 0.109147,0.14189 0.01819,0.26195 l -1.615378,2.0738 a 3.412667,3.412667 0 0 1 0.574842,0.45114 2.6268076,2.6268076 0 0 0 0.214656,0.21466 c 0.811327,0.65124 1.688142,0.53846 2.248431,-0.20738 m -1.85914,-3.22348 a 0.19646484,0.19646484 0 0 0 -0.200103,-0.0291 l -2.652275,0.74948 -0.236485,-0.25468 c 0.571203,-1.02962 0.938665,-1.70269 1.426189,-2.54676 0.04002,-0.0618 0.07276,-0.0982 0.02911,-0.16736 -0.08732,-0.1237 -0.0764,-0.16372 -0.02911,-0.20374 0.0473,-0.04 0.1237,-0.0327 0.170997,0.0437 0.0473,0.0764 0.181912,0.28379 0.240124,0.36383 0.05821,0.08 0.02547,0.20738 -0.03638,0.30561 l -1.222448,2.04469 2.157475,-0.62214 c 0.138253,-0.0437 -0.134615,-0.29833 -0.02547,-0.38929 0.05457,-0.04 0.109147,0 0.160082,0.0618 0.05093,0.0619 0.130977,0.21466 0.189188,0.2947 0.05821,0.08 0.116424,0.13825 0.196465,0.23284 0.08004,0.0946 0.05821,0.1419 0,0.18192 -0.05821,0.04 -0.06913,0 -0.178273,-0.091 m -1.79729,-2.59042 c -0.02547,0 -0.05457,0 -0.152806,0 l -0.05821,-0.20738 -0.363823,-0.79678 -2.357578,1.19334 -0.261953,-0.42931 2.401236,-1.22245 c -0.105509,-0.23648 -0.305612,-0.64396 -0.305612,-0.64396 -0.116423,-0.23649 -0.145529,-0.15281 -0.312888,-0.10187 -0.0764,0.0218 -0.156444,0.0327 -0.18555,-0.0255 -0.02911,-0.0582 0,-0.12006 0.07276,-0.15645 0.07276,-0.0364 0.211017,-0.10551 0.327441,-0.16008 0.116424,-0.0546 0.181912,0 0.225571,0.10915 l 0.174635,0.40384 c 0.221933,0.52027 0.476609,1.02962 0.727648,1.53898 a 2.0592425,2.0592425 0 0 0 0.170997,0.26195 c 0,0.0255 0.03274,0.0473 0.04366,0.0655 a 0.10550889,0.10550889 0 0 1 -0.04366,0.14189 0.10187066,0.10187066 0 0 1 -0.08368,0 m -4.194888,-2.60862 a 1.6262923,1.6262923 0 0 1 -0.03274,-0.88045 l 0.298336,0.0255 a 1.3643391,1.3643391 0 0 0 -0.04366,0.77494 c 0.1237,0.36383 0.363824,0.56393 0.694903,0.45478 0.156444,-0.0582 0.203742,-0.23648 0.236486,-0.42567 a 4.4932236,4.4932236 0 0 1 0.174635,-0.89501 0.8586241,0.8586241 0 0 1 0.538459,-0.5421 c 0.432951,-0.1528 0.851348,0.18192 1.018707,0.67672 a 4.133038,4.133038 0 0 1 0.134615,0.66216 c -0.196465,0.0837 -0.341995,0.13461 -0.458418,0.17463 -0.05821,0.0255 -0.127339,0.04 -0.156445,-0.0546 -0.02911,-0.0946 0,-0.11279 0.189189,-0.22921 0.08368,-0.0473 0.149168,-0.2001 0.05093,-0.4948 -0.09823,-0.2947 -0.323803,-0.51663 -0.622139,-0.41112 -0.207379,0.0728 -0.236485,0.5712 -0.254676,0.76403 a 2.0010307,2.0010307 0 0 1 -0.14553,0.66216 0.85134762,0.85134762 0 0 1 -0.491162,0.42931 c -0.512991,0.18191 -0.956856,-0.16736 -1.127853,-0.68763 m 22.608009,4.66422 a 0.62941512,0.62941512 0 0 1 0.09096,0.99688 0.90955943,0.90955943 0 0 1 -0.08732,0.091 l -0.891368,-0.82225 c -0.03275,-0.0291 -0.0473,-0.0582 0,-0.11278 l 0.09823,-0.11279 a 0.46569443,0.46569443 0 0 1 0.785859,-0.0437 m 2.161114,0.72765 a 0.09459418,0.09459418 0 0 0 -0.09459,-0.0182 0.98596242,0.98596242 0 0 1 -0.298335,0 c -0.425674,-0.0546 -0.811327,-0.0837 -1.240639,-0.13461 a 1.0187066,1.0187066 0 0 0 -0.240124,-1.0369 0.72764754,0.72764754 0 0 0 -1.091471,0.17827 c -0.1237,0.14189 -0.232847,0.29834 -0.363824,0.4475 -0.07277,0.0837 -0.229209,0.2474 -0.294697,0.30198 a 0.93866533,0.93866533 0 0 0 -0.14553,0.12734 c -0.0473,0.0546 -0.06549,0.11642 0,0.17099 0.06549,0.0546 0.112786,0 0.18555,-0.0655 0.07276,-0.0655 0.14553,-0.10551 0.258315,0 l 1.917352,1.74635 0.283782,-0.42204 -0.869539,-0.79313 0.03638,-0.0437 a 0.72764754,0.72764754 0 0 0 0.112785,-0.15644 l 0.953218,0.10187 c 0.312889,0.04 0.549374,0.11642 0.796774,-0.16736 0.06185,-0.0728 0.127339,-0.21102 0.09459,-0.24013 m -10.201619,1.31341 a 0.09095594,0.09095594 0 0 0 0.156444,0.0873 3.5181759,3.5181759 0 0 0 0.760392,-1.62265 c 0.636692,-2.65591 0.167359,-6.05403 0.167359,-6.05767 -0.192827,-1.45529 1.116939,-2.26298 2.182943,-2.79052 a 2.8705695,2.8705695 0 0 0 0.905921,-0.69491 2.7905283,2.7905283 0 0 0 0.505715,-1.00779 c 0.338356,-1.13513 0.985962,-2.44126 2.466725,-2.51402 0,0 3.48907,-0.25468 6.046751,-1.33887 a 3.6382377,3.6382377 0 0 0 1.50623,-1.05873 c 0.06549,-0.0946 -0.03274,-0.171 -0.116423,-0.13825 a 19.486401,19.486401 0 0 1 -7.24737,1.45529 h -0.243762 a 3.1761815,3.1761815 0 0 0 -2.226601,0.97505 c -0.884092,0.92411 -0.658521,2.54677 -1.237001,3.17254 -0.57848,0.62578 -2.048328,0.72765 -2.91059,1.71725 a 2.8742078,2.8742078 0 0 0 -0.694903,2.31392 l 0.03274,0.27287 a 18.1257,18.1257 0 0 1 -0.04366,7.20371 m 1.455295,-0.89137 c -0.01819,0.0509 0.04002,0.0837 0.08368,0.0509 0.232848,-0.16736 0.458418,-0.5894 0.771307,-1.22245 a 14.41106,14.41106 0 0 0 1.091471,-4.82794 14.629354,14.629354 0 0 0 -0.105509,-2.1211 h -0.02183 a 1.0914713,1.0914713 0 0 0 -0.985963,1.04418 c 0,0.0691 0,0.14189 0,0.21102 a 17.270714,17.270714 0 0 1 -0.854986,6.86535 m 1.688143,-1.70997 c -0.05457,0.10915 0,0.14189 0.08368,0.0437 a 7.5930021,7.5930021 0 0 0 1.069642,-1.3607 10.09611,10.09611 0 0 0 1.233363,-4.88979 c 0,-0.36383 -0.02183,-0.72765 -0.05094,-1.06601 a 0.24376193,0.24376193 0 0 1 0,-0.16008 c 0,-0.0255 0.06549,-0.0218 0.149168,-0.0255 q 0.542098,-0.0437 1.091471,-0.13825 a 10.587272,10.587272 0 0 0 4.667859,-2.04105 7.6621286,7.6621286 0 0 0 1.178789,-1.27702 c 0.08368,-0.10187 0.04366,-0.14917 -0.05821,-0.0764 a 13.123123,13.123123 0 0 1 -6.807143,2.43035 1.6117393,1.6117393 0 0 0 -0.876815,0.36382 0.87317705,0.87317705 0 0 0 -0.338357,0.48025 1.484401,1.484401 0 0 0 -0.112785,0.72764 12.388199,12.388199 0 0 1 -1.229724,6.98906 m 5.133553,-9.94694 a 15.33881,15.33881 0 0 0 4.664221,-1.88461 c 0.57848,-0.41112 0.964133,-0.70582 1.091471,-0.95686 0.02547,-0.0473 -0.01819,-0.10187 -0.06549,-0.0728 a 18.213018,18.213018 0 0 1 -6.756208,2.01194 l -0.214656,0.0218 a 1.0696419,1.0696419 0 0 0 -0.869538,1.15333 15.604401,15.604401 0 0 0 2.153836,-0.27287 m -8.986447,-0.48753 c 0.280145,0 0.502077,0.11643 0.502077,0.21102 0,0.0946 -0.225571,0.21102 -0.502077,0.21102 -0.276506,0 -0.498438,-0.11642 -0.498438,-0.21102 0,-0.0946 0.22557,-0.21102 0.502076,-0.21102 m -1.324318,-0.8186 c -0.865901,0 -0.814965,-0.21102 -0.833156,-0.28014 a 0.93138885,0.93138885 0 0 1 0.836794,-0.44387 0.80405053,0.80405053 0 0 1 0.774945,0.53482 c 0,0 -0.138253,0.19283 -0.778583,0.19283 m 1.324318,2.44126 a 1.1133007,1.1133007 0 0 1 -0.971409,-0.57485 c 0,-0.12733 1.946457,-0.12733 1.946457,0 a 1.116939,1.116939 0 0 1 -0.975048,0.57485 m 1.295213,-2.44126 c -0.636691,0 -0.771306,-0.19283 -0.771306,-0.19283 a 0.79677406,0.79677406 0 0 1 0.771306,-0.53482 0.93138885,0.93138885 0 0 1 0.836795,0.44387 c -0.01819,0.0691 0.03638,0.28014 -0.833157,0.28014 m 1.437104,0.30197 c -0.04002,-0.40748 -0.09459,-1.13876 -0.109147,-1.52806 a 3.6382377,3.6382377 0 0 1 -2.637722,-1.3898 3.6382377,3.6382377 0 0 1 -2.637723,1.3898 c 0,0.3893 -0.06913,1.12058 -0.109147,1.52806 a 2.7359548,2.7359548 0 0 0 0.680351,2.06288 2.9324196,2.9324196 0 0 0 0.924112,0.72765 l 0.09823,0.04 0.167358,0.0728 a 1.913713,1.913713 0 0 1 0.240124,0.18919 1.2333626,1.2333626 0 0 0 1.273383,0 1.7645453,1.7645453 0 0 1 0.243762,-0.18919 l 0.167359,-0.0728 0.09823,-0.04 a 2.9105902,2.9105902 0 0 0 0.920474,-0.72765 2.7286783,2.7286783 0 0 0 0.68035,-2.06288 m -4.8716,-5.20995 c -0.913198,0.55665 -1.182427,0.5712 -1.182427,0.5712 0,0 0,0.95322 1.357062,0.42931 0.480248,-0.18555 1.935543,-1.00415 1.691781,-1.34615 -0.414759,-0.57484 -1.127854,-0.10914 -1.866416,0.34564 m 1.266107,1.24427 c -2.379408,1.36798 -3.212564,0.10551 -3.212564,0.10551 0,0 -0.905921,1.0369 0.589394,1.4553 a 3.2016492,3.2016492 0 0 0 2.91059,-0.72765 c 0.472971,-0.36382 0.571204,-1.3134 -0.283782,-0.82224 m 2.983355,-1.24064 c 0.909559,0.53846 1.204257,0.55665 1.204257,0.55665 0,0 -0.03275,0.95322 -1.393446,0.42931 -0.480247,-0.18555 -1.935542,-1.00415 -1.688142,-1.34615 0.411121,-0.57484 1.127854,-0.10914 1.866416,0.34564 m -1.269745,1.24427 c 2.379408,1.36798 3.248946,0.10551 3.248946,0.10551 0,0 0.869539,1.0369 -0.625776,1.4553 a 3.2016492,3.2016492 0 0 1 -2.910591,-0.72765 c -0.469332,-0.36382 -0.571203,-1.3134 0.283783,-0.82224 m 3.678258,1.76818 a 1.9500954,1.9500954 0 0 1 -1.269745,0.75676 c 0,0.29469 0,0.68035 0.03638,0.9896 1.171512,-0.16009 1.673589,-1.04418 1.237,-1.74636 m -1.215171,2.58679 a 3.2744139,3.2744139 0 0 1 -0.258315,1.00779 c 0.800413,-0.14553 1.313404,-0.61486 1.091472,-1.61901 a 1.0550889,1.0550889 0 0 1 -0.844072,0.52754 z m -6.614316,-0.83679 c 0.02183,-0.31289 0.02547,-0.69127 0.03274,-0.98961 a 1.9391807,1.9391807 0 0 1 -1.269745,-0.76039 c -0.440227,0.70582 0.06185,1.58627 1.237001,1.75 m -0.02183,0.77494 a 1.1205772,1.1205772 0 0 1 -0.876816,-0.52754 c -0.214656,1.00051 0.334718,1.45529 1.13513,1.61901 a 3.4344964,3.4344964 0 0 1 -0.258314,-1.02962 z m 3.274413,-20.34503 c -9.408482,0 -17.063334,9.18655 -17.063334,20.47964 0,11.29309 7.640299,20.47964 17.070611,20.47964 9.430312,0 17.066973,-9.18655 17.066973,-20.47964 0,-11.29309 -7.654852,-20.47964 -17.066973,-20.47964 m 0,40.35534 c -9.095594,0 -16.47394,-8.91732 -16.47394,-19.8757 0,-10.95837 7.385622,-19.87205 16.47394,-19.87205 9.088318,0 16.47394,8.91368 16.47394,19.87205 0,10.95838 -7.389261,19.8757 -16.47394,19.8757 m 5.515568,-22.95001 c -0.0473,0.87318 0.975048,-0.62213 0.141892,-1.79729 -0.680351,-0.97141 -1.306128,-2.28117 -0.462057,-3.45996 0,0 1.928266,-2.83055 2.637723,-5.45736 a 3.5327288,3.5327288 0 0 0 0.08732,-1.81912 0.0873177,0.0873177 0 0 0 -0.174635,0 18.733286,18.733286 0 0 1 -3.274414,6.46152 l -0.138253,0.18918 a 3.0743109,3.0743109 0 0 0 -0.593033,2.33575 c 0.218295,1.52442 1.844587,2.28118 1.771822,3.56548 m 0.469333,-4.42774 a 1.0660036,1.0660036 0 0 0 0.363823,1.37525 12.788406,12.788406 0 0 0 1.109663,-1.81912 14.767607,14.767607 0 0 0 1.378892,-4.75153 3.6928113,3.6928113 0 0 0 -0.08368,-1.42983 c -0.02547,-0.0509 -0.08732,-0.0473 -0.09823,0 a 17.518115,17.518115 0 0 1 -2.546766,6.42513 z m 0.993239,2.41215 c -0.309251,0.41476 -0.440227,1.39345 0.156444,1.62629 0.407482,0.16372 1.662674,0.0218 2.20841,-0.19646 a 0.11642361,0.11642361 0 0 0 0,-0.21102 11.322196,11.322196 0 0 0 -1.560804,-0.46933 10.441742,10.441742 0 0 0 1.819119,-5.78116 7.6402992,7.6402992 0 0 0 -0.272868,-1.69542 c -0.02911,-0.1237 -0.08732,-0.1237 -0.09459,0 a 12.686535,12.686535 0 0 1 -2.252069,6.70891 m -12.031652,-3.24167 c 0.844071,1.17879 0.214656,2.48855 -0.462056,3.45996 -0.829519,1.17879 0.189188,2.67047 0.141891,1.79729 -0.06913,-1.28429 1.553527,-2.04105 1.77546,-3.56547 a 3.0852256,3.0852256 0 0 0 -0.596671,-2.31028 l -0.138253,-0.18919 a 18.784221,18.784221 0 0 1 -3.274414,-6.46151 0.09095594,0.09095594 0 0 0 -0.178274,0 3.6018553,3.6018553 0 0 0 0.08732,1.81912 c 0.727647,2.63045 2.634084,5.45736 2.637722,5.45736 m -2.259345,0.4002 a 15.349725,15.349725 0 0 0 1.091471,1.81912 1.0696419,1.0696419 0 0 0 0.363824,-1.38617 l -0.116424,-0.17827 a 17.521753,17.521753 0 0 1 -2.546766,-6.42513 c 0,-0.0546 -0.0764,-0.0582 -0.09823,0 a 3.6818966,3.6818966 0 0 0 -0.08368,1.42983 14.851286,14.851286 0 0 0 1.397083,4.73335 m -0.327441,3.59458 a 11.547766,11.547766 0 0 0 -1.564442,0.46933 0.11642361,0.11642361 0 0 0 0,0.21102 c 0.545735,0.21829 1.819118,0.36382 2.20841,0.19646 0.593033,-0.23285 0.465694,-1.21153 0.156444,-1.62629 a 12.704726,12.704726 0 0 1 -2.244793,-6.72346 c 0,-0.1237 -0.06185,-0.1237 -0.09096,0 a 7.5820874,7.5820874 0 0 0 -0.276506,1.69541 10.470848,10.470848 0 0 0 1.819119,5.78116 m 6.970864,10.23437 c 0,0 0.02911,-0.26923 0.03274,-0.27287 a 2.877846,2.877846 0 0 0 -0.694904,-2.31392 c -0.880453,-1.00052 -2.343025,-1.09147 -2.91059,-1.71725 -0.567565,-0.62578 -0.363824,-2.24479 -1.237001,-3.17254 a 3.1725433,3.1725433 0 0 0 -2.222963,-0.97505 h -0.243762 a 19.490039,19.490039 0 0 1 -7.243731,-1.45529 c -0.08368,-0.0328 -0.181912,0.0436 -0.116424,0.13825 a 3.6382377,3.6382377 0 0 0 1.502593,1.05873 c 2.546766,1.09147 6.035836,1.33887 6.046751,1.33887 1.480762,0.0728 2.128369,1.37889 2.466725,2.51402 a 2.7941666,2.7941666 0 0 0 0.487524,0.98232 2.8669313,2.8669313 0 0 0 0.895006,0.68035 c 1.091471,0.52755 2.390322,1.34979 2.201134,2.79053 0,0 -0.469333,3.40175 0.163721,6.05767 a 3.5436435,3.5436435 0 0 0 0.76403,1.6372 0.09095594,0.09095594 0 0 0 0.156444,-0.0873 18.111147,18.111147 0 0 1 -0.04002,-7.20371 m -2.29209,-0.55302 c 0,-0.0691 0,-0.14189 0,-0.21101 a 1.0914713,1.0914713 0 0 0 -0.953218,-1.04054 h -0.03638 a 14.785798,14.785798 0 0 0 -0.105509,2.12109 14.341933,14.341933 0 0 0 1.091471,4.82794 3.6855348,3.6855348 0 0 0 0.767668,1.22245 c 0.0473,0.0328 0.101871,0 0.08732,-0.0509 a 17.219779,17.219779 0 0 1 -0.851348,-6.869 m -2.044689,-1.85914 a 1.4880392,1.4880392 0 0 0 -0.112786,-0.72764 0.88409176,0.88409176 0 0 0 -0.338356,-0.48025 1.6117393,1.6117393 0 0 0 -0.876815,-0.36382 13.097656,13.097656 0 0 1 -6.803504,-2.43035 c -0.105509,-0.0728 -0.141892,-0.0255 -0.06185,0.0764 a 7.7348934,7.7348934 0 0 0 1.182428,1.26974 10.550889,10.550889 0 0 0 4.693326,2.04105 c 0.363824,0.0618 0.727648,0.10915 1.091472,0.13826 0.08004,0 0.134614,0 0.145529,0.0255 a 0.23648545,0.23648545 0 0 1 -0.01091,0.16372 c -0.02911,0.36383 -0.0473,0.70946 -0.0473,1.06601 a 10.103386,10.103386 0 0 0 1.21881,4.88251 7.5930021,7.5930021 0 0 0 1.069642,1.3607 c 0.08732,0.0982 0.138253,0.0655 0.08368,-0.0437 a 12.402752,12.402752 0 0 1 -1.233362,-6.97814 m -1.746354,-2.68865 a 1.0914713,1.0914713 0 0 0 -0.869539,-1.15332 l -0.214656,-0.0218 a 18.227571,18.227571 0 0 1 -6.756208,-2.01195 c -0.05093,-0.0291 -0.09459,0.0255 -0.06913,0.0728 a 3.8237878,3.8237878 0 0 0 1.091471,0.95685 15.280598,15.280598 0 0 0 4.671497,1.88825 15.386107,15.386107 0 0 0 2.146561,0.27287 m 6.381469,-15.36064 c -0.549374,0.62577 -0.647607,2.27389 -0.727648,3.01246 -0.549374,-0.49117 -1.353424,-1.2079 -2.10654,-1.22973 -0.09096,0 -0.207379,0 -0.10187,0.13098 0.363824,0.39293 1.226086,1.3134 1.633569,1.75363 a 0.85498586,0.85498586 0 0 0 0.596671,0.2947 0.97868594,0.97868594 0 0 0 0.232847,0 0.43295029,0.43295029 0 0 0 0.167359,-0.0619 0.9459418,0.9459418 0 0 0 0.200103,-0.15645 0.88773,0.88773 0 0 0 0.2474,-0.63669 c 0,-0.6185 0,-2.33211 0,-3.00155 0,-0.16735 -0.09459,-0.17099 -0.156444,-0.10187 m 0.691265,0.10187 c 0,0.66944 0,2.37941 0,3.00155 a 0.88409176,0.88409176 0 0 0 0.232847,0.6185 1.0187066,1.0187066 0 0 0 0.211018,0.171 0.42567381,0.42567381 0 0 0 0.167359,0.0619 1.0223448,1.0223448 0 0 0 0.211018,0 0.87681529,0.87681529 0 0 0 0.614862,-0.2947 c 0.403844,-0.44386 1.262468,-1.3607 1.62993,-1.75363 0.109147,-0.11642 0,-0.13461 -0.09823,-0.13098 -0.753115,0.0218 -1.557166,0.72765 -2.10654,1.22973 -0.06913,-0.72765 -0.181912,-2.38669 -0.727647,-3.01246 -0.06549,-0.0691 -0.141892,-0.0655 -0.141892,0.10187"
       id="path18"
       style="stroke-width:0.363824" />
  </g>
</svg>
