<?xml version="1.0" standalone="no"?>
<!DOCTYPE svg PUBLIC "-//W3C//DTD SVG 20010904//EN"
 "http://www.w3.org/TR/2001/REC-SVG-20010904/DTD/svg10.dtd">
<svg version="1.0" xmlns="http://www.w3.org/2000/svg"
 width="577.000000pt" height="433.000000pt" viewBox="0 0 577.000000 433.000000"
 preserveAspectRatio="xMidYMid meet">

<g transform="translate(0.000000,433.000000) scale(0.100000,-0.100000)"
fill="#000000" stroke="none">
<path d="M707 2408 c-15 -73 -41 -200 -58 -283 -16 -82 -38 -190 -48 -238 -13
-64 -15 -90 -7 -93 6 -2 133 -3 281 -2 l270 3 21 90 21 90 -161 3 c-88 1 -164
6 -169 11 -5 5 -3 27 3 50 l11 41 167 0 168 0 13 72 c7 40 16 78 18 85 4 10
-31 13 -162 13 l-168 0 7 46 c3 25 8 50 12 55 3 5 119 9 266 9 l260 0 -6 -47
c-4 -27 -18 -102 -31 -168 -56 -275 -65 -322 -65 -338 0 -16 11 -17 112 -15
l113 3 22 105 c45 212 83 406 85 430 3 24 5 25 92 28 49 2 93 -1 98 -6 9 -9 0
-64 -43 -267 -23 -110 -49 -254 -49 -277 0 -16 12 -18 109 -18 61 0 112 4 115
8 3 5 14 62 26 128 30 170 18 154 112 154 l80 0 -7 -52 c-4 -29 -14 -87 -22
-128 -9 -41 -16 -82 -17 -90 -1 -12 19 -15 111 -18 l112 -3 10 38 c5 21 17 76
26 123 8 47 26 137 40 200 27 130 66 321 73 363 l4 27 -114 0 -115 0 -26 -122
c-15 -68 -28 -132 -29 -143 -3 -18 -12 -20 -86 -23 -98 -3 -95 -10 -57 143 13
55 25 110 25 123 l0 22 -708 0 -708 0 -27 -132z"/>
<path d="M3266 2509 c-11 -54 -8 -59 27 -59 32 0 34 3 44 45 l10 45 -37 0
c-34 0 -38 -3 -44 -31z"/>
<path d="M3466 2513 c-4 -16 -9 -36 -12 -45 -4 -15 1 -18 34 -18 35 0 41 3 46
28 4 15 9 35 12 45 4 14 -1 17 -34 17 -35 0 -41 -3 -46 -27z"/>
<path d="M4196 2532 c-2 -4 -7 -24 -11 -45 l-7 -37 35 0 c41 0 42 1 51 53 7
37 7 37 -28 37 -19 0 -37 -3 -40 -8z"/>
<path d="M4877 2463 c-16 -80 -66 -326 -94 -468 -8 -44 -19 -93 -23 -110 -24
-88 -24 -85 18 -85 l39 0 22 113 c48 248 57 271 121 315 47 32 94 29 131 -7
33 -34 35 -51 14 -153 -7 -40 -21 -109 -30 -153 -9 -45 -18 -91 -22 -104 -5
-21 -3 -22 33 -19 l39 3 12 60 c6 33 24 118 39 189 31 150 26 184 -31 235 -32
28 -43 31 -98 31 -44 0 -71 -6 -95 -20 -18 -11 -34 -20 -36 -20 -5 0 10 85 32
183 l20 87 -37 0 -38 0 -16 -77z"/>
<path d="M2706 2294 c-3 -9 -6 -24 -6 -35 0 -17 10 -19 122 -21 l122 -3 -114
-130 c-62 -71 -123 -140 -134 -151 -65 -67 -78 -84 -86 -115 -6 -19 -10 -37
-10 -41 0 -5 80 -8 179 -8 177 0 179 0 185 23 12 47 13 47 -125 47 -76 0 -129
4 -127 9 2 5 21 29 43 53 22 24 69 77 105 118 36 41 87 98 114 125 47 48 76
98 76 130 0 13 -24 15 -169 15 -145 0 -170 -2 -175 -16z"/>
<path d="M3161 2253 c-6 -32 -23 -117 -38 -189 -31 -159 -28 -188 27 -238 36
-32 46 -36 97 -36 43 0 67 6 101 26 44 26 45 26 39 5 -6 -26 11 -36 46 -27 20
5 25 18 45 123 29 146 72 352 78 376 5 14 -1 17 -35 17 -46 0 -43 7 -70 -145
-39 -218 -52 -251 -107 -286 -20 -12 -54 -22 -76 -23 -33 -1 -45 5 -65 28 -29
34 -29 59 7 241 38 198 38 185 -3 185 -35 0 -36 0 -46 -57z"/>
<path d="M3703 2203 c-12 -60 -34 -166 -48 -238 -14 -71 -28 -138 -31 -147 -4
-15 1 -18 34 -18 l39 0 21 108 c12 59 26 132 32 162 22 114 89 186 165 177 21
-3 44 -12 50 -20 9 -13 15 -11 38 9 34 29 34 40 -3 59 -47 24 -129 20 -173
-10 l-37 -26 0 26 c0 22 -4 25 -33 25 l-33 0 -21 -107z"/>
<path d="M4135 2233 c-9 -43 -23 -107 -30 -143 -7 -36 -23 -110 -34 -165 -28
-132 -28 -135 9 -135 36 0 45 16 60 106 7 38 25 130 40 204 16 74 31 152 34
173 5 36 4 37 -29 37 l-33 0 -17 -77z"/>
<path d="M4480 2304 c-107 -42 -183 -176 -183 -324 -1 -77 17 -117 69 -156 65
-50 183 -42 252 16 22 18 22 20 6 45 -19 29 -27 31 -44 11 -6 -8 -31 -22 -55
-32 -35 -13 -50 -14 -78 -5 -65 22 -82 63 -71 172 16 169 160 274 253 185 l27
-26 24 25 24 26 -32 32 c-29 29 -38 32 -104 34 -40 1 -80 0 -88 -3z"/>
</g>
</svg>
