<?xml version="1.0" standalone="no"?>
<!DOCTYPE svg PUBLIC "-//W3C//DTD SVG 20010904//EN"
 "http://www.w3.org/TR/2001/REC-SVG-20010904/DTD/svg10.dtd">
<svg version="1.0" xmlns="http://www.w3.org/2000/svg"
 width="416.000000pt" height="416.000000pt" viewBox="0 0 416.000000 416.000000"
 preserveAspectRatio="xMidYMid meet">

<g transform="translate(0.000000,416.000000) scale(0.100000,-0.100000)"
fill="#000000" stroke="none">
<path d="M590 2741 c-29 -7 -31 -9 -9 -10 47 -2 49 -11 49 -237 0 -225 -1
-228 -50 -237 -14 -2 27 -4 90 -4 63 0 102 2 85 4 -47 7 -55 26 -55 130 l0 93
48 0 c85 1 134 16 164 49 37 42 45 90 22 138 -31 61 -69 76 -198 79 -61 1
-127 -1 -146 -5z m241 -25 c24 -11 39 -51 39 -106 0 -68 -29 -101 -97 -110
-27 -3 -55 -4 -61 -2 -12 4 -18 223 -7 233 6 6 105 -6 126 -15z"/>
<path d="M285 2733 c54 -8 55 -11 55 -210 0 -198 -7 -236 -51 -267 -27 -19
-94 -21 -105 -4 -4 7 -8 26 -8 43 -1 23 -6 31 -23 33 -46 7 -48 -64 -2 -88 32
-18 129 -16 164 2 45 24 76 61 86 105 5 21 9 111 9 199 0 174 1 179 55 187 17
2 -24 4 -90 4 -66 0 -106 -2 -90 -4z"/>
<path d="M1045 2733 c17 -3 36 -9 43 -15 16 -14 17 -389 1 -419 -6 -12 -25
-27 -42 -34 -30 -13 -26 -14 63 -14 87 0 92 1 60 12 -26 9 -38 21 -47 47 -14
40 -18 384 -5 376 5 -3 51 -102 103 -220 52 -119 99 -216 104 -216 6 0 24 33
42 73 122 280 157 357 165 357 5 0 7 -86 6 -194 -4 -212 -7 -222 -61 -229 -18
-2 24 -4 93 -4 69 0 109 2 90 4 -58 7 -60 15 -60 238 0 222 2 231 60 238 19 2
-1 4 -45 3 l-79 -1 -46 -101 c-25 -55 -65 -147 -89 -203 -24 -56 -47 -98 -51
-94 -4 4 -39 80 -78 168 -38 88 -78 177 -88 198 l-18 37 -75 -1 c-42 -1 -62
-4 -46 -6z"/>
<path d="M1814 2601 c-35 -20 -57 -42 -70 -68 -25 -51 -25 -136 1 -188 68
-135 297 -138 365 -5 22 44 27 131 9 177 -22 59 -106 118 -157 110 l-27 -4 27
-2 c45 -2 94 -58 107 -123 14 -67 2 -154 -26 -193 -27 -37 -79 -58 -129 -52
-81 9 -121 55 -131 152 -11 106 30 193 103 215 28 8 28 8 4 9 -14 0 -48 -12
-76 -28z"/>
<path d="M2205 2623 c43 -11 45 -19 45 -182 0 -86 -4 -161 -8 -167 -4 -7 -18
-14 -32 -17 -14 -2 16 -4 65 -4 50 -1 77 2 60 6 l-30 6 -3 83 c-3 75 -1 82 17
82 19 0 44 -26 119 -124 43 -56 44 -56 95 -56 l52 1 -31 13 c-17 8 -48 36 -69
62 -22 27 -52 63 -68 80 l-29 32 36 12 c43 14 66 44 66 86 0 68 -57 95 -204
93 -56 -1 -92 -4 -81 -6z m205 -21 c18 -14 23 -30 24 -65 1 -60 -24 -87 -88
-94 l-46 -6 0 92 0 91 44 0 c28 0 52 -7 66 -18z"/>
<path d="M2703 2605 c-67 -41 -105 -143 -83 -224 26 -99 123 -156 224 -132 28
7 65 15 83 18 31 5 32 7 35 61 3 49 6 58 28 69 22 11 16 13 -55 12 -56 0 -73
-3 -58 -9 26 -11 37 -41 29 -85 -11 -59 -100 -84 -163 -45 -52 31 -68 72 -68
170 0 70 4 91 22 121 27 42 59 59 114 59 55 0 95 -26 120 -77 11 -24 22 -43
22 -43 1 0 2 27 2 59 0 33 -3 57 -7 54 -5 -2 -8 -11 -8 -19 0 -19 -3 -18 -46
11 -51 35 -132 35 -191 0z"/>
<path d="M3159 2453 c-58 -138 -80 -180 -99 -190 -23 -12 -19 -13 35 -12 46 0
55 2 38 9 -27 11 -29 35 -7 90 l16 40 77 0 77 0 22 -60 c16 -45 18 -62 9 -65
-6 -2 -19 -6 -27 -8 -8 -3 19 -5 60 -5 41 0 67 2 57 5 -19 5 -44 57 -122 251
-28 67 -53 122 -56 122 -4 0 -40 -80 -80 -177z m95 28 c14 -36 26 -68 26 -73
0 -4 -30 -8 -66 -8 -49 0 -65 3 -61 13 46 115 61 147 67 140 5 -4 20 -37 34
-72z"/>
<path d="M3500 2617 l25 -13 0 -164 0 -164 -25 -13 c-23 -11 -19 -13 40 -12
36 1 56 3 45 6 -40 9 -45 30 -45 185 0 81 4 148 8 148 4 0 63 -74 132 -165 68
-91 129 -170 137 -176 11 -10 13 20 13 169 l0 181 28 15 c26 15 25 15 -38 15
-58 -1 -62 -2 -37 -12 36 -14 38 -28 35 -171 l-3 -119 -109 144 c-61 79 -115
147 -120 151 -6 4 -33 8 -61 8 -47 0 -48 -1 -25 -13z"/>
<path d="M257 2115 c-62 -23 -94 -52 -124 -113 -24 -49 -28 -69 -28 -142 0
-94 11 -125 66 -178 48 -47 105 -65 188 -60 60 3 75 8 109 35 29 24 42 29 51
20 6 -6 11 -17 11 -24 0 -7 4 -13 9 -13 5 0 9 36 10 80 2 82 -12 107 -23 44
-10 -51 -66 -109 -121 -124 -86 -24 -159 10 -201 95 -24 51 -26 63 -22 153 3
84 7 104 31 145 41 70 104 96 183 76 61 -16 110 -63 126 -122 14 -52 34 -65
24 -16 -3 17 -6 59 -7 93 -1 56 -2 58 -11 31 -6 -16 -12 -31 -13 -33 -2 -2
-19 8 -40 22 -68 46 -146 57 -218 31z"/>
<path d="M2499 2101 c-36 -36 -38 -83 -8 -142 l20 -40 -28 -22 c-15 -11 -43
-36 -60 -55 -29 -29 -33 -40 -33 -86 0 -60 21 -96 72 -122 58 -30 149 -13 194
37 17 19 18 19 50 -12 27 -26 43 -33 88 -37 49 -4 57 -2 81 22 15 15 24 30 20
34 -3 4 -11 -1 -16 -9 -24 -44 -97 -26 -143 34 l-25 32 37 75 c25 50 48 81 69
95 18 11 32 23 33 28 0 4 -36 7 -80 7 -84 0 -100 -8 -50 -27 24 -9 30 -17 30
-40 0 -31 -34 -113 -47 -113 -5 0 -37 39 -72 87 -58 80 -62 88 -45 98 42 23
94 83 94 108 0 40 -52 77 -107 77 -36 0 -50 -6 -74 -29z m119 -1 c33 -31 29
-75 -12 -116 -19 -19 -39 -34 -44 -34 -13 0 -52 80 -52 108 0 29 34 62 63 62
13 0 33 -9 45 -20z m-23 -294 c36 -52 65 -99 65 -104 0 -14 -51 -49 -75 -52
-45 -5 -66 2 -100 31 -48 43 -63 94 -40 143 17 34 58 76 76 76 4 0 37 -42 74
-94z"/>
<path d="M3174 2106 c-88 -41 -134 -126 -134 -245 1 -139 80 -228 216 -239 70
-5 121 8 164 44 l29 25 15 -28 c8 -15 16 -26 16 -23 5 25 2 162 -3 167 -4 3
-7 -5 -7 -18 0 -36 -41 -100 -78 -126 -133 -89 -275 16 -275 203 0 99 19 160
64 205 89 89 243 43 280 -83 7 -27 17 -48 22 -48 5 0 6 7 3 16 -3 9 -6 50 -6
92 -1 77 -1 77 -16 43 -13 -31 -15 -33 -32 -18 -64 58 -175 72 -258 33z"/>
<path d="M665 2001 l30 -6 0 -175 0 -175 -30 -6 c-17 -4 9 -7 60 -6 50 0 79 2
65 4 -35 7 -40 18 -40 106 l0 77 105 0 105 0 0 -77 c0 -88 -5 -99 -40 -106
-14 -2 13 -4 60 -5 48 0 74 3 60 7 l-25 7 -3 171 -2 171 27 10 c23 8 11 10
-57 10 -47 0 -75 -3 -63 -5 36 -7 44 -27 41 -99 l-3 -68 -70 -3 c-38 -2 -85
-1 -102 2 l-33 6 0 63 c0 65 12 91 45 99 11 3 -20 5 -70 5 -51 0 -77 -3 -60
-7z"/>
<path d="M1240 1863 c-86 -205 -90 -214 -114 -223 -15 -6 -4 -9 39 -9 48 0 55
2 36 10 -20 8 -23 14 -18 42 3 17 10 44 16 60 10 26 13 27 86 27 l76 0 19 -46
c26 -60 25 -82 -2 -87 -13 -2 11 -4 52 -4 41 -1 67 1 57 4 -19 5 -44 56 -122
250 -28 68 -53 123 -57 123 -3 0 -34 -66 -68 -147z m84 -2 c14 -36 26 -68 26
-73 0 -4 -29 -8 -65 -8 -36 0 -65 3 -65 6 0 20 64 154 70 147 5 -4 20 -37 34
-72z"/>
<path d="M1586 1979 c-52 -61 -25 -124 74 -170 82 -39 110 -64 110 -101 0 -39
-40 -78 -80 -78 -60 0 -94 31 -123 110 -3 8 -5 -14 -6 -50 0 -51 2 -60 10 -41
l9 24 25 -23 c16 -15 40 -24 72 -27 65 -6 107 21 124 77 20 65 -2 98 -97 147
-43 22 -87 52 -98 67 -19 25 -19 29 -6 54 9 14 26 29 40 33 l25 7 -27 1 c-18
1 -34 -9 -52 -30z"/>
<path d="M1685 2003 c27 -7 45 -22 67 -58 l18 -30 0 45 c0 30 -3 40 -9 31 -7
-11 -13 -11 -32 3 -13 9 -33 15 -44 15 -20 -1 -20 -1 0 -6z"/>
<path d="M1897 2000 c31 -13 34 -34 31 -200 -3 -143 -3 -145 -28 -157 -21 -11
-2 -13 126 -13 l151 0 7 38 c11 69 6 79 -16 34 -26 -55 -44 -64 -121 -60 l-62
3 -3 178 -2 177 53 0 c60 0 102 -24 110 -63 3 -12 4 -2 3 23 l-1 45 -135 2
c-89 1 -127 -1 -113 -7z"/>
<path d="M3695 1993 c-76 -39 -105 -90 -105 -179 0 -81 34 -138 103 -170 89
-41 186 -27 248 35 95 95 66 258 -57 316 -42 20 -150 19 -189 -2z m190 -26
c41 -41 59 -103 52 -178 -6 -69 -29 -114 -70 -139 -39 -24 -106 -26 -147 -5
-57 29 -87 132 -69 230 17 90 58 125 148 125 47 0 57 -4 86 -33z"/>
<path d="M2080 1870 c0 -12 -11 -25 -26 -33 l-27 -12 24 -5 c14 -3 26 -16 30
-30 5 -17 7 -4 8 38 1 34 -1 62 -4 62 -3 0 -5 -9 -5 -20z"/>
<path d="M4044 1676 c-12 -31 0 -51 31 -51 27 0 30 3 30 30 0 25 -4 30 -28 33
-17 2 -29 -2 -33 -12z"/>
</g>
</svg>
