<?xml version="1.0" encoding="UTF-8"?>
<!DOCTYPE svg PUBLIC "-//W3C//DTD SVG 1.1//EN" "http://www.w3.org/Graphics/SVG/1.1/DTD/svg11.dtd">
<svg xmlns="http://www.w3.org/2000/svg" version="1.1" width="1671px" height="1726px" style="shape-rendering:geometricPrecision; text-rendering:geometricPrecision; image-rendering:optimizeQuality; fill-rule:evenodd; clip-rule:evenodd" xmlns:xlink="http://www.w3.org/1999/xlink">
<g><path style="opacity:0.995" fill="#5d8bc4" d="M 821.5,15.5 C 1019.5,14.5549 1196.83,73.7215 1353.5,193C 1508.69,315.347 1610.53,472.847 1659,665.5C 1661.63,673.906 1658.8,679.239 1650.5,681.5C 1649.21,680.902 1647.87,680.402 1646.5,680C 1590.8,596.301 1520.14,528.301 1434.5,476C 1323.54,412.941 1204.54,388.941 1077.5,404C 1014.56,411.651 953.562,426.985 894.5,450C 815.738,480.369 742.404,520.035 674.5,569C 652.983,583.839 629.15,591.672 603,592.5C 568.801,593.416 544.134,578.75 529,548.5C 522.008,529.325 521.675,509.992 528,490.5C 538.936,456.799 557.769,428.299 584.5,405C 634.572,361.439 690.905,327.773 753.5,304C 755.5,302.667 757.5,301.333 759.5,300C 758.663,298.989 758.33,297.822 758.5,296.5C 666.431,298.9 576.431,313.734 488.5,341C 360.389,382.507 254.889,456.007 172,561.5C 152.348,587.467 133.682,614.134 116,641.5C 101.265,663.238 82.4321,680.404 59.5,693C 38.82,701.01 25.32,694.51 19,673.5C 18.5043,657.297 20.1709,641.297 24,625.5C 76.4216,447.725 175.588,302.225 321.5,189C 469.267,78.0168 635.933,20.1835 821.5,15.5 Z"/></g>
<g><path style="opacity:0.995" fill="#ca5e4b" d="M 1620.5,1024.5 C 1638.8,1022.97 1649.3,1031.3 1652,1049.5C 1653.79,1069.88 1651.79,1089.88 1646,1109.5C 1626.15,1177.1 1597.81,1240.77 1561,1300.5C 1443.06,1490.69 1276.22,1617.19 1060.5,1680C 1043.69,1684.79 1026.69,1688.79 1009.5,1692C 950.554,1701.83 891.221,1707.66 831.5,1709.5C 775.243,1706.3 719.243,1700.47 663.5,1692C 602.033,1679.07 542.699,1659.73 485.5,1634C 454.03,1618.77 423.03,1602.77 392.5,1586C 358.994,1563.49 326.328,1539.83 294.5,1515C 196.164,1433.83 120.331,1335.33 67,1219.5C 40.8697,1165.28 22.0364,1108.61 10.5,1049.5C 10.4513,1043.55 13.4513,1040.55 19.5,1040.5C 21.6341,1040.52 23.6341,1041.02 25.5,1042C 69.4701,1105.64 122.137,1161.31 183.5,1209C 340.383,1320.26 511.716,1349.26 697.5,1296C 775.719,1272.22 850.386,1240.22 921.5,1200C 944.645,1186.51 966.978,1171.85 988.5,1156C 1009.74,1141.69 1033.08,1132.69 1058.5,1129C 1088.66,1124.38 1113.49,1133.55 1133,1156.5C 1147.12,1178.34 1151.12,1202.01 1145,1227.5C 1141.06,1247.66 1133.06,1265.99 1121,1282.5C 1101,1308.73 1077.5,1331.23 1050.5,1350C 1010.31,1377.77 967.648,1401.43 922.5,1421C 1044.19,1421.53 1160.19,1395.86 1270.5,1344C 1374.49,1293.02 1458.99,1219.52 1524,1123.5C 1537.42,1102.99 1551.09,1082.66 1565,1062.5C 1580.12,1044.71 1598.62,1032.04 1620.5,1024.5 Z"/></g>
</svg>
