<svg id="Livello_1" data-name="Livello 1" xmlns="http://www.w3.org/2000/svg" viewBox="0 0 402.4 448.34"><defs><style>.cls-1{fill:#575756;}.cls-2{fill:#95c11f;}.cls-3{fill:#e6007e;}.cls-4{fill:#fcea10;}.cls-5{fill:#36a9e1;}</style></defs><path class="cls-1" d="M104.1,637.25a26.75,26.75,0,0,1-1.7-36.06A27.25,27.25,0,0,1,123,591.5a26.73,26.73,0,0,1,10.32,2,.19.19,0,0,1,.1.25l-1.76,4.13a.17.17,0,0,1-.23.1,21.78,21.78,0,0,0-8.38-1.65,21.26,21.26,0,0,0-15.54,6.41q-7.45,7.46-6.3,18.42a20.05,20.05,0,0,0,4.37,10.53q7,8.59,17.47,8.59a22,22,0,0,0,7-1.12.2.2,0,0,0,.13-.19V620.76a.18.18,0,0,0-.18-.19H119.4a.18.18,0,0,1-.19-.19v-4.46a.18.18,0,0,1,.19-.19h15.43a.18.18,0,0,1,.18.19v26.34a.18.18,0,0,1-.11.17l-1.31.56a25.44,25.44,0,0,1-7.54,2Q113,646.17,104.1,637.25Z" transform="translate(-96.22 -196.8)"/><path class="cls-1" d="M183,592.16V639.6a.18.18,0,0,0,.18.18h24.08a.19.19,0,0,1,.19.19v4.47a.18.18,0,0,1-.19.18H178.36a.18.18,0,0,1-.18-.18V592.16a.19.19,0,0,1,.18-.19h4.47A.2.2,0,0,1,183,592.16Z" transform="translate(-96.22 -196.8)"/><path class="cls-1" d="M287.41,592.16v52.28a.18.18,0,0,1-.19.18h-4.43a.18.18,0,0,1-.18-.18V631.65a.19.19,0,0,0-.19-.19H261.81a.19.19,0,0,0-.16.09l-8.21,13a.19.19,0,0,1-.16.08H248a.19.19,0,0,1-.16-.28l33.06-52.28a.19.19,0,0,1,.16-.09h6.16A.19.19,0,0,1,287.41,592.16Zm-22.32,34.46h17.33a.19.19,0,0,0,.19-.19V599.07a.19.19,0,0,0-.35-.1l-17.33,27.36A.19.19,0,0,0,265.09,626.62Z" transform="translate(-96.22 -196.8)"/><path class="cls-1" d="M332.66,644.44V592.16a.19.19,0,0,1,.19-.19H345.6a25.37,25.37,0,0,1,18.52,7.63,26.5,26.5,0,0,1,7.81,18.77,26.34,26.34,0,0,1-26.33,26.25H332.85A.18.18,0,0,1,332.66,644.44Zm5-4.62H345a22.38,22.38,0,0,0,16.08-6.57q7-7.25,5.89-17.85a19.65,19.65,0,0,0-4.27-10.22q-6.81-8.4-17.1-8.41h-8a.2.2,0,0,0-.19.19v42.67A.2.2,0,0,0,337.65,639.82Z" transform="translate(-96.22 -196.8)"/><path class="cls-1" d="M413.56,591.72h4.5a.19.19,0,0,1,.19.18v52.54a.19.19,0,0,1-.19.18h-4.5a.18.18,0,0,1-.19-.18V591.9A.18.18,0,0,1,413.56,591.72Z" transform="translate(-96.22 -196.8)"/><path class="cls-1" d="M465.53,592.06l33.06,52.28a.18.18,0,0,1-.16.28h-5.28a.18.18,0,0,1-.15-.08l-8.22-13a.16.16,0,0,0-.15-.09H464a.18.18,0,0,0-.19.19v12.79a.18.18,0,0,1-.19.18h-4.43a.18.18,0,0,1-.18-.18V592.16a.19.19,0,0,1,.18-.19h6.17A.19.19,0,0,1,465.53,592.06Zm-1.7,7v27.36a.18.18,0,0,0,.19.19h17.33a.19.19,0,0,0,.15-.29L464.17,599A.18.18,0,0,0,463.83,599.07Z" transform="translate(-96.22 -196.8)"/><path class="cls-2" d="M150.69,411.25c-7.93-12.88-16.88-28.09-16.59-43.77.18-9.47,6.88-21.66,14.9-26.7,6.75-4.25,14.64-6.33,22.37-8,14.81-3.14,31.38-5,42.8-16a28.6,28.6,0,0,0,8.55-21.59c-.21-9.17-3.34-17.95-4.25-27C216.14,245,223.83,212,251,207.67a30.83,30.83,0,0,1,22.86,5c8,5.63,11.18,14.16,12.3,23.55,1.15,9.58.72,19.31,1,28.93.38,11.11.5,22.22.42,33.34-.18,22.38-1.19,44.75-2.78,67.07q-.6,8.44-1.3,16.87c-.39,4.76-1.15,9.61-.93,14.4.34,7.7,3.53,14.87,11.1,17.78,9.35,3.59,19.08,1,28.61-.13,4.48-.55,9.77-1.13,14,.81,3.38,1.56,5.49,4.71,6.67,8.14,1.79,5.19,2.05,11.2,2.25,16.68.14,4.12.54,12.27-4.26,14.18-3.59,1.42-7.42-1.31-10-3.56-3-2.66-5.62-5.69-8.8-8.15-3-2.32-6.7-4.56-10.65-4.37-3.71.19-5.94,2.95-8.81,4.87-4.6,3.09-10,1.41-14.3-1.21-2.74-1.66-5.82-3.31-9.12-2.84s-5.7,2.83-8.07,5c-2.05,1.86-4.23,3.59-6.33,5.39-6.62,5.66-23.14,20.65-9.59,28.36,3.79,2.16,8.75,2.61,13,3a100.65,100.65,0,0,0,15.53.21c8.78-.46,17.47-1.73,26.23-2.39,8.59-.65,17.67-.9,25.95,1.85,3.33,1.11,8.48,3.06,8,7.4-.36,3.28-3.26,6.11-5.72,8.05-6.93,5.46-16.58,5.93-24.86,8-7.75,1.93-15.43,5.11-19.77,12.19-3.79,6.17-4.53,13.75-4.36,20.84.18,8,.74,17.35,5.45,24.18,8.87,12.85,26.82,11.48,39.92,7.46,18.47-5.66,35.68-16.71,50.52-28.9A149.82,149.82,0,0,0,421,496.24a210.84,210.84,0,0,0,21.18-54c3.55-15.12,4.85-30.57,5.66-46.05.66-12.59.72-25.4-1.75-37.81-2.2-11.11-6.82-22.31-15.94-29.49-13.46-10.59-31.79-9.14-47.76-7.11-10.21,1.3-20.5,2.89-30.82,2.08A45.3,45.3,0,0,1,336,320.2c-5.19-2.44-5.58-7.22-5.28-12.38a54.13,54.13,0,0,1,25.83-42.51c15.44-9.22,35.57-9.45,51.47-1.21,7.56,3.92,14.36,10,17.16,18.24,2.88,8.54-.93,16.57-9.64,19.3a44.57,44.57,0,0,1-12.49,1.61c-5.35.11-10.7.08-16,.11l-33,.2-16.74.11c-4.48,0-9.7.7-14-.89-5.34-2-5.48-8-5.48-12.86A66.6,66.6,0,0,1,319.34,276a67.53,67.53,0,0,1,31.18-43.78c15.88-9.42,35.48-12.26,53.22-6.88a56.64,56.64,0,0,1,23.49,13.75c6.68,6.65,11.2,15.11,14.1,24,6.16,18.93,6.91,40,5.47,59.74a195.67,195.67,0,0,1-4.86,31.28c-2.43,10.13-6.15,19.76-9.19,29.7-2.52,8.23-4.21,16.83-3,25.44,1.25,9.23,5.74,17.2,10.76,24.88,9.36,14.34,21.09,29.23,19.57,47.41-.51,6.18-2.88,12.42-7.71,16.51-5.45,4.61-12.83,5.25-19.62,4-1.62-.29-2.31,2.19-.68,2.49,6.68,1.21,13.8.88,19.67-2.86a24.08,24.08,0,0,0,10.08-14.86c4.12-17-5-33-14.14-46.58-5.29-7.9-11.26-15.86-14-25.07s-1.72-18.91.88-28.18c2.88-10.22,6.9-20,9.48-30.35a199.08,199.08,0,0,0,5.17-31c1.76-20,1.14-41.45-4.58-60.86a66.59,66.59,0,0,0-12.48-24.28,56.5,56.5,0,0,0-21.49-15.48c-16.76-7-36-6.48-52.63.52a69.45,69.45,0,0,0-37.13,37.19,70.18,70.18,0,0,0-5.54,26.31c-.06,4-.11,8.79,2.23,12.29,2.16,3.23,5.82,4.39,9.52,4.75,5.23.49,10.62.1,15.87.07l16.74-.11,34.5-.21c8.45-.05,17.92.71,25.71-3.22A16.25,16.25,0,0,0,428.55,285c-2.86-16.92-21.39-26.55-36.81-28.81a55,55,0,0,0-47.17,15.3,58,58,0,0,0-15.24,27.79,51.59,51.59,0,0,0-.83,5.1c-.5,4-.95,8.66.61,12.48s5.41,5.65,9.19,6.93a55.56,55.56,0,0,0,14.62,2.69c10.71.61,21.32-1.2,31.91-2.48,16.33-2,35.34-2.72,47.48,10.34,8.58,9.24,11.56,22.44,12.7,34.63,1.21,12.91.44,25.91-.53,38.81-1.42,19-4.78,37.4-11.23,55.37-6.89,19.17-16.43,38.34-29.38,54.17-12.67,15.5-28.74,28.07-46.06,38-9.1,5.21-18.77,9.69-29,12.09-7.75,1.82-16.34,2.29-23.75-1.11-9-4.14-11.83-13.06-12.73-22.32-.73-7.65-1.06-15.91,1.83-23.19,7.44-18.8,31.87-12.32,45.48-22.76,4.25-3.26,9.58-9.57,5.64-15-2.25-3.1-6.47-4.5-9.9-5.54a33.34,33.34,0,0,0-4.72-1.11c-21.61-3.25-42.92,4.44-64.49,1.51-4.4-.6-11-1.27-12.94-6-1.1-2.72.1-5.67,1.52-8,3.52-5.85,9.19-10.37,14.36-14.71,2.35-2,4.59-4.35,7.11-6.09,4-2.75,7.53-1.05,11.26,1.21s7.79,3.58,12.17,2.77c4.05-.74,6.11-3.88,9.59-5.62,4.66-2.32,9.94,1.81,13.29,4.73,3.07,2.69,5.69,5.86,9,8.28,4.37,3.18,10.83,4.24,14-1,2.74-4.51,2.41-10.72,2.07-15.78-.39-5.77-.67-11.92-3.14-17.23-3.44-7.41-10.45-9.29-18.11-8.88-10.34.56-20.65,4.34-30.89,1-10.43-3.4-10.79-14.24-10-23.45q1.5-17.11,2.58-34.26c1.44-23,2.23-46.09,2.06-69.16-.08-10.83-.56-21.66-.66-32.5-.09-9.54,0-19.78-3.41-28.85-5.72-15.21-22.64-22.06-37.86-18.68-12.3,2.74-21.36,12-26.43,23.26-5.35,11.81-7.09,25.34-6,38.2.78,9,3.79,17.72,4.3,26.77.52,9.55-3.06,17.89-10.71,23.68-13.77,10.43-31.79,10.37-47.73,15.07-7.82,2.31-15.53,5.82-21.14,11.9a34.12,34.12,0,0,0-8.94,22.16c-.52,16.58,8.49,32.28,16.9,45.93.87,1.41,3.09.12,2.22-1.3Z" transform="translate(-96.22 -196.8)"/><path class="cls-3" d="M156.49,403.31c-7.94-12.87-16.89-28.09-16.59-43.77.18-9.47,6.88-21.66,14.9-26.7,6.75-4.24,14.64-6.33,22.37-8,14.81-3.14,31.38-5,42.8-16a28.55,28.55,0,0,0,8.54-21.59c-.2-9.17-3.33-17.95-4.24-27-2.33-23.19,5.35-56.12,32.48-60.48a30.83,30.83,0,0,1,22.86,5c8,5.63,11.18,14.16,12.3,23.55,1.14,9.58.72,19.31,1,28.93.38,11.11.5,22.22.42,33.34-.18,22.38-1.2,44.75-2.78,67.07q-.6,8.44-1.3,16.87c-.39,4.76-1.15,9.61-.94,14.4.34,7.7,3.54,14.87,11.11,17.78,9.35,3.59,19.08,1,28.61-.13,4.48-.55,9.77-1.13,14,.81,3.39,1.56,5.49,4.71,6.68,8.14,1.79,5.19,2.05,11.21,2.24,16.68.15,4.12.55,12.27-4.25,14.18-3.59,1.43-7.42-1.31-10-3.56-3-2.66-5.62-5.69-8.81-8.15-3-2.32-6.69-4.56-10.64-4.36-3.71.18-5.94,2.94-8.81,4.86-4.6,3.09-10,1.41-14.3-1.21-2.74-1.66-5.82-3.31-9.13-2.83s-5.7,2.82-8.06,4.95c-2,1.86-4.23,3.59-6.34,5.39-6.62,5.66-23.14,20.65-9.58,28.36,3.79,2.16,8.75,2.61,13,3a100.65,100.65,0,0,0,15.53.21c8.77-.46,17.47-1.72,26.22-2.39,8.6-.65,17.68-.9,26,1.85,3.33,1.11,8.48,3.06,8,7.4-.37,3.29-3.26,6.11-5.72,8.05-6.93,5.46-16.58,5.93-24.86,8-7.75,1.93-15.43,5.12-19.77,12.19-3.79,6.18-4.53,13.75-4.36,20.84.18,8.05.74,17.35,5.45,24.18,8.87,12.85,26.82,11.48,39.92,7.46,18.47-5.66,35.68-16.71,50.52-28.9a149.63,149.63,0,0,0,35.78-43.36,210.12,210.12,0,0,0,21.18-54c3.56-15.12,4.86-30.57,5.67-46,.66-12.59.72-25.4-1.75-37.81-2.2-11.11-6.82-22.31-15.94-29.49-13.47-10.59-31.79-9.14-47.76-7.11-10.22,1.3-20.5,2.89-30.82,2.08a45.3,45.3,0,0,1-15.51-3.64c-5.2-2.43-5.58-7.22-5.28-12.38a54.13,54.13,0,0,1,25.83-42.51c15.44-9.22,35.57-9.45,51.47-1.21,7.56,3.92,14.36,10,17.15,18.24,2.89,8.54-.92,16.57-9.63,19.3a44.64,44.64,0,0,1-12.5,1.61c-5.34.11-10.69.08-16,.11l-33,.21-16.74.1c-4.48,0-9.71.7-14-.89-5.34-2-5.48-8-5.48-12.86a65.94,65.94,0,0,1,1.49-13.93,67.55,67.55,0,0,1,31.17-43.78c15.88-9.42,35.49-12.25,53.23-6.88A56.54,56.54,0,0,1,433,231.14c6.69,6.65,11.2,15.11,14.11,24,6.16,18.93,6.91,40,5.47,59.74a195.49,195.49,0,0,1-4.86,31.28c-2.43,10.13-6.15,19.77-9.19,29.71-2.52,8.22-4.21,16.82-3,25.43,1.24,9.23,5.74,17.2,10.75,24.89,9.37,14.33,21.1,29.22,19.58,47.4-.51,6.18-2.88,12.42-7.71,16.51-5.45,4.61-12.84,5.25-19.62,4-1.62-.3-2.31,2.18-.68,2.48,6.67,1.21,13.8.88,19.67-2.86a24.08,24.08,0,0,0,10.08-14.86c4.12-17-5.05-33-14.15-46.58-5.28-7.9-11.25-15.86-14-25.06-2.81-9.36-1.73-18.92.88-28.19,2.88-10.22,6.9-20,9.48-30.35a199.08,199.08,0,0,0,5.17-31c1.76-20,1.14-41.45-4.58-60.86-2.6-8.79-6.55-17.23-12.48-24.28a56.69,56.69,0,0,0-21.49-15.48c-16.77-7-36-6.47-52.64.52a69.48,69.48,0,0,0-37.13,37.19,70.57,70.57,0,0,0-5.54,26.31c-.05,4-.1,8.79,2.24,12.29,2.16,3.23,5.82,4.4,9.51,4.75,5.24.49,10.63.1,15.88.07l16.74-.11L400,298c8.45-.05,17.92.71,25.71-3.22a16.24,16.24,0,0,0,8.69-17.64c-2.86-16.92-21.39-26.55-36.81-28.81a55,55,0,0,0-47.17,15.3,58,58,0,0,0-15.24,27.79,51.59,51.59,0,0,0-.83,5.1c-.5,4-.95,8.66.61,12.48s5.41,5.65,9.19,6.94a55.47,55.47,0,0,0,14.62,2.68c10.71.61,21.32-1.2,31.91-2.48,16.33-2,35.34-2.72,47.48,10.34,8.58,9.24,11.56,22.44,12.7,34.63,1.21,12.91.44,25.91-.53,38.81-1.42,19-4.78,37.4-11.23,55.37-6.89,19.17-16.43,38.34-29.38,54.17-12.67,15.5-28.75,28.07-46.06,38-9.1,5.22-18.78,9.69-29,12.09-7.75,1.82-16.34,2.29-23.75-1.11-9-4.14-11.83-13.06-12.73-22.32-.73-7.65-1.06-15.91,1.82-23.19,7.45-18.8,31.88-12.32,45.49-22.76,4.25-3.26,9.58-9.57,5.64-15-2.25-3.1-6.47-4.5-9.9-5.54a33.34,33.34,0,0,0-4.72-1.11C314.82,465.2,293.52,472.9,272,470c-4.41-.6-11-1.27-12.94-6-1.1-2.72.1-5.67,1.52-8,3.52-5.85,9.19-10.37,14.36-14.7,2.35-2,4.59-4.36,7.11-6.1,4-2.75,7.53-1.05,11.26,1.21s7.79,3.59,12.17,2.77c4.05-.74,6.11-3.88,9.59-5.62,4.65-2.32,9.94,1.81,13.29,4.73,3.07,2.69,5.69,5.86,9,8.28,4.38,3.18,10.84,4.24,14.05-1,2.74-4.51,2.41-10.72,2.07-15.78-.39-5.77-.68-11.92-3.14-17.23-3.44-7.4-10.46-9.29-18.11-8.88-10.34.56-20.65,4.34-30.9,1-10.42-3.4-10.79-14.24-10-23.45q1.49-17.11,2.58-34.26c1.44-23,2.23-46.09,2.06-69.16-.08-10.83-.56-21.66-.67-32.49-.09-9.55,0-19.79-3.41-28.86-5.71-15.21-22.63-22.06-37.85-18.68-12.3,2.74-21.37,12.05-26.43,23.26-5.35,11.81-7.1,25.34-6,38.2.78,9,3.79,17.72,4.29,26.77.53,9.55-3,17.89-10.7,23.68-13.78,10.43-31.79,10.37-47.74,15.07-7.81,2.31-15.52,5.82-21.13,11.9a34.14,34.14,0,0,0-8.94,22.16c-.52,16.58,8.49,32.28,16.9,45.93.86,1.41,3.09.12,2.22-1.3Z" transform="translate(-96.22 -196.8)"/><path class="cls-4" d="M145.54,408c-7.94-12.88-16.89-28.09-16.59-43.78.18-9.46,6.88-21.66,14.9-26.7,6.75-4.24,14.64-6.33,22.37-8,14.81-3.13,31.38-5,42.8-16a28.52,28.52,0,0,0,8.54-21.58c-.2-9.17-3.33-17.95-4.24-27-2.33-23.19,5.36-56.12,32.48-60.47a30.78,30.78,0,0,1,22.86,5c8,5.63,11.18,14.15,12.3,23.55,1.14,9.58.72,19.3,1,28.93.38,11.11.5,22.22.42,33.33-.18,22.38-1.19,44.75-2.78,67.08q-.6,8.43-1.3,16.86c-.39,4.77-1.15,9.62-.94,14.4.34,7.71,3.54,14.88,11.11,17.78,9.35,3.6,19.08,1,28.61-.12,4.48-.55,9.77-1.14,14,.81,3.39,1.55,5.49,4.71,6.68,8.13,1.79,5.19,2,11.21,2.25,16.68.14,4.12.54,12.27-4.26,14.18-3.59,1.43-7.42-1.3-10-3.56-3-2.66-5.62-5.68-8.81-8.14-3-2.33-6.69-4.56-10.64-4.37-3.71.18-5.94,2.94-8.81,4.87-4.6,3.08-10,1.41-14.3-1.22-2.74-1.65-5.82-3.3-9.12-2.83s-5.71,2.82-8.07,5c-2.05,1.86-4.23,3.59-6.33,5.39-6.63,5.66-23.14,20.65-9.59,28.36,3.79,2.15,8.75,2.6,13,3a101.92,101.92,0,0,0,15.53.22c8.77-.46,17.47-1.73,26.23-2.39,8.59-.66,17.67-.91,25.95,1.85,3.33,1.11,8.48,3.05,8,7.39-.37,3.29-3.26,6.12-5.72,8.06-6.93,5.45-16.58,5.92-24.86,8-7.75,1.92-15.43,5.11-19.77,12.19-3.79,6.17-4.53,13.75-4.36,20.84.18,8,.74,17.35,5.45,24.17,8.87,12.86,26.82,11.49,39.92,7.47,18.47-5.66,35.68-16.71,50.52-28.9A149.73,149.73,0,0,0,415.83,493,210.77,210.77,0,0,0,437,439c3.55-15.12,4.85-30.58,5.66-46,.66-12.59.72-25.4-1.75-37.82-2.2-11.1-6.82-22.3-15.94-29.48-13.47-10.6-31.79-9.14-47.76-7.11-10.21,1.3-20.5,2.88-30.82,2.08a45.3,45.3,0,0,1-15.51-3.64c-5.19-2.44-5.58-7.23-5.28-12.38a54.11,54.11,0,0,1,25.83-42.51c15.44-9.22,35.57-9.45,51.47-1.21,7.56,3.92,14.36,10,17.16,18.24,2.88,8.53-.93,16.56-9.64,19.29A44.22,44.22,0,0,1,397.94,300c-5.35.1-10.7.08-16,.11l-33,.2-16.74.1c-4.48,0-9.71.71-14-.88-5.34-2-5.48-8-5.48-12.86a66.6,66.6,0,0,1,1.49-13.93,67.55,67.55,0,0,1,31.17-43.79c15.89-9.41,35.49-12.25,53.23-6.87a56.44,56.44,0,0,1,23.48,13.75c6.69,6.65,11.2,15.1,14.11,24,6.16,18.92,6.91,40,5.47,59.74a195.55,195.55,0,0,1-4.86,31.27c-2.43,10.14-6.15,19.77-9.19,29.71-2.52,8.22-4.21,16.82-3,25.44,1.25,9.23,5.74,17.2,10.75,24.88,9.37,14.34,21.1,29.23,19.58,47.41-.51,6.18-2.88,12.42-7.71,16.5-5.45,4.61-12.84,5.26-19.62,4-1.62-.29-2.31,2.18-.68,2.48,6.67,1.22,13.8.89,19.67-2.86a24.06,24.06,0,0,0,10.08-14.85c4.12-17-5.05-33-14.15-46.58-5.28-7.9-11.25-15.86-14-25.07-2.81-9.36-1.72-18.92.88-28.18,2.88-10.22,6.9-20,9.48-30.35a199.08,199.08,0,0,0,5.17-31c1.76-20,1.14-41.45-4.58-60.87a66.67,66.67,0,0,0-12.48-24.28,56.69,56.69,0,0,0-21.49-15.48c-16.76-7-36-6.47-52.63.53a69.48,69.48,0,0,0-37.14,37.18,70.66,70.66,0,0,0-5.54,26.32c-.05,4-.1,8.79,2.24,12.29,2.16,3.22,5.82,4.39,9.51,4.74,5.24.5,10.63.1,15.88.07l16.74-.1,34.5-.21c8.45-.05,17.92.7,25.71-3.23a16.24,16.24,0,0,0,8.69-17.63C420.54,264.85,402,255.22,386.59,253a55,55,0,0,0-47.17,15.3,58,58,0,0,0-15.24,27.8,51.39,51.39,0,0,0-.83,5.09c-.5,4-1,8.66.61,12.49s5.41,5.65,9.19,6.93a55.14,55.14,0,0,0,14.62,2.68c10.71.62,21.32-1.2,31.91-2.48,16.33-2,35.34-2.72,47.48,10.35,8.58,9.23,11.56,22.43,12.7,34.63,1.21,12.91.44,25.91-.53,38.8-1.42,19-4.78,37.41-11.23,55.37-6.89,19.18-16.43,38.34-29.38,54.18-12.67,15.49-28.74,28.06-46.06,38-9.1,5.21-18.78,9.69-29,12.09-7.75,1.82-16.34,2.28-23.75-1.12-9-4.14-11.83-13-12.73-22.31-.73-7.65-1.06-15.92,1.82-23.19,7.45-18.81,31.88-12.32,45.49-22.77,4.25-3.26,9.58-9.56,5.64-15-2.25-3.1-6.47-4.5-9.9-5.54a33.34,33.34,0,0,0-4.72-1.11c-21.62-3.26-42.92,4.44-64.49,1.5-4.4-.6-11-1.26-12.94-6-1.1-2.72.1-5.67,1.52-8,3.52-5.85,9.19-10.37,14.36-14.7,2.35-2,4.59-4.36,7.11-6.1,4-2.74,7.53-1,11.26,1.22s7.79,3.58,12.17,2.77c4-.75,6.11-3.89,9.59-5.62,4.65-2.32,9.94,1.8,13.29,4.73,3.07,2.69,5.69,5.86,9,8.27,4.37,3.19,10.83,4.25,14-1,2.74-4.51,2.41-10.73,2.07-15.78-.39-5.77-.67-11.92-3.14-17.23-3.44-7.41-10.45-9.3-18.11-8.88-10.34.56-20.65,4.33-30.89,1-10.43-3.39-10.8-14.23-10-23.45q1.48-17.1,2.58-34.25c1.44-23,2.23-46.09,2.06-69.16-.08-10.84-.56-21.66-.66-32.5-.1-9.55,0-19.78-3.42-28.85-5.71-15.22-22.63-22.06-37.85-18.68-12.3,2.73-21.36,12-26.43,23.25-5.35,11.82-7.1,25.34-6,38.21.78,9,3.79,17.72,4.29,26.76.53,9.56-3.05,17.9-10.7,23.69-13.77,10.43-31.79,10.36-47.73,15.07-7.82,2.3-15.53,5.82-21.14,11.9a34.12,34.12,0,0,0-8.94,22.16c-.52,16.57,8.49,32.28,16.9,45.92.86,1.41,3.09.12,2.22-1.29Z" transform="translate(-96.22 -196.8)"/><path class="cls-5" d="M150.69,403.31c-7.93-12.87-16.88-28.09-16.59-43.77.18-9.47,6.88-21.66,14.9-26.7,6.75-4.24,14.64-6.33,22.37-8,14.81-3.14,31.38-5,42.8-16a28.6,28.6,0,0,0,8.55-21.59c-.21-9.17-3.34-17.95-4.25-27-2.33-23.19,5.36-56.12,32.48-60.48a30.83,30.83,0,0,1,22.86,5c8,5.63,11.18,14.16,12.3,23.55,1.15,9.58.72,19.31,1,28.93.38,11.11.5,22.22.42,33.34-.18,22.38-1.19,44.75-2.78,67.07q-.6,8.44-1.3,16.87c-.39,4.76-1.15,9.61-.93,14.4.34,7.7,3.53,14.87,11.1,17.78,9.35,3.59,19.08,1,28.61-.13,4.48-.55,9.77-1.13,14,.81,3.38,1.56,5.49,4.71,6.67,8.14,1.79,5.19,2.05,11.21,2.25,16.68.14,4.12.54,12.27-4.26,14.18-3.59,1.43-7.42-1.31-10-3.56-3-2.66-5.62-5.69-8.8-8.15-3-2.32-6.7-4.56-10.65-4.36-3.71.18-5.94,2.94-8.81,4.86-4.6,3.09-10,1.41-14.3-1.21-2.74-1.66-5.82-3.31-9.12-2.83s-5.7,2.82-8.07,4.95c-2.05,1.86-4.23,3.59-6.33,5.39-6.62,5.66-23.14,20.65-9.59,28.36,3.79,2.16,8.75,2.61,13,3a100.65,100.65,0,0,0,15.53.21c8.78-.46,17.47-1.72,26.23-2.39,8.59-.65,17.67-.9,25.95,1.85,3.33,1.11,8.48,3.06,8,7.4-.36,3.29-3.26,6.11-5.72,8.05-6.93,5.46-16.58,5.93-24.86,8-7.75,1.93-15.43,5.12-19.77,12.19-3.79,6.18-4.53,13.75-4.36,20.84.18,8.05.74,17.35,5.45,24.18,8.87,12.85,26.82,11.48,39.92,7.46,18.47-5.66,35.68-16.71,50.52-28.9A149.82,149.82,0,0,0,421,488.3a210.84,210.84,0,0,0,21.18-54c3.55-15.12,4.85-30.57,5.66-46,.66-12.59.72-25.4-1.75-37.81-2.2-11.11-6.82-22.31-15.94-29.49-13.46-10.59-31.79-9.14-47.76-7.11-10.21,1.3-20.5,2.89-30.82,2.08A45.3,45.3,0,0,1,336,312.26c-5.19-2.43-5.58-7.22-5.28-12.38a54.13,54.13,0,0,1,25.83-42.51c15.44-9.22,35.57-9.45,51.47-1.21,7.56,3.92,14.36,10,17.16,18.24,2.88,8.54-.93,16.57-9.64,19.3a44.57,44.57,0,0,1-12.49,1.61c-5.35.11-10.7.08-16,.11l-33,.21-16.74.1c-4.48,0-9.7.7-14-.89-5.34-2-5.48-8-5.48-12.86a66.6,66.6,0,0,1,1.49-13.93,67.53,67.53,0,0,1,31.18-43.78c15.88-9.42,35.48-12.25,53.22-6.88a56.64,56.64,0,0,1,23.49,13.75c6.68,6.65,11.2,15.11,14.1,24,6.16,18.93,6.91,40,5.47,59.74a195.49,195.49,0,0,1-4.86,31.28c-2.43,10.13-6.15,19.77-9.19,29.71-2.52,8.22-4.21,16.82-3,25.43,1.25,9.23,5.74,17.2,10.76,24.89,9.36,14.33,21.09,29.22,19.57,47.4-.51,6.18-2.88,12.42-7.71,16.51-5.45,4.61-12.83,5.25-19.62,4-1.62-.3-2.31,2.18-.68,2.48,6.68,1.21,13.8.88,19.67-2.86a24.08,24.08,0,0,0,10.08-14.86c4.12-17-5-33-14.14-46.58-5.29-7.9-11.26-15.86-14-25.06-2.81-9.36-1.72-18.92.88-28.19,2.88-10.22,6.9-20,9.48-30.35a199.08,199.08,0,0,0,5.17-31c1.76-20,1.14-41.45-4.58-60.86a66.67,66.67,0,0,0-12.48-24.28,56.61,56.61,0,0,0-21.49-15.48c-16.76-7-36-6.47-52.63.52a69.45,69.45,0,0,0-37.13,37.19,70.18,70.18,0,0,0-5.54,26.31c-.06,4-.11,8.79,2.23,12.29,2.16,3.23,5.82,4.4,9.52,4.75,5.23.49,10.62.1,15.87.07l16.74-.11,34.5-.21c8.45-.05,17.92.71,25.71-3.22a16.24,16.24,0,0,0,8.69-17.64c-2.86-16.92-21.39-26.55-36.81-28.81a55,55,0,0,0-47.17,15.3,58,58,0,0,0-15.24,27.79,51.59,51.59,0,0,0-.83,5.1c-.5,4-.95,8.66.61,12.48s5.41,5.65,9.19,6.94a55.54,55.54,0,0,0,14.62,2.68c10.71.61,21.32-1.2,31.91-2.48,16.33-2,35.34-2.72,47.48,10.34,8.58,9.24,11.56,22.44,12.7,34.63,1.21,12.91.44,25.91-.53,38.81-1.42,19-4.78,37.4-11.23,55.37-6.89,19.17-16.43,38.34-29.38,54.17-12.67,15.5-28.74,28.07-46.06,38-9.1,5.22-18.77,9.69-29,12.09-7.75,1.82-16.34,2.29-23.75-1.11-9-4.14-11.83-13.06-12.73-22.32-.73-7.65-1.06-15.91,1.83-23.19,7.44-18.8,31.87-12.32,45.48-22.76,4.25-3.26,9.58-9.57,5.64-15-2.25-3.1-6.47-4.5-9.9-5.54a33.34,33.34,0,0,0-4.72-1.11C309,465.2,287.72,472.9,266.15,470c-4.4-.6-11-1.27-12.94-6-1.1-2.72.1-5.67,1.52-8,3.52-5.85,9.19-10.37,14.36-14.7,2.35-2,4.59-4.36,7.11-6.1,4-2.75,7.53-1.05,11.26,1.21s7.79,3.59,12.17,2.77c4.05-.74,6.11-3.88,9.59-5.62,4.66-2.32,9.94,1.81,13.29,4.73,3.07,2.69,5.69,5.86,9,8.28,4.37,3.18,10.83,4.24,14-1,2.74-4.51,2.41-10.72,2.07-15.78-.39-5.77-.67-11.92-3.14-17.23-3.44-7.4-10.45-9.29-18.11-8.88-10.34.56-20.65,4.34-30.89,1-10.43-3.4-10.79-14.24-10-23.45q1.5-17.11,2.58-34.26c1.44-23,2.23-46.09,2.06-69.16-.08-10.83-.56-21.66-.66-32.49-.09-9.55,0-19.79-3.41-28.86-5.72-15.21-22.64-22.06-37.86-18.68-12.3,2.74-21.36,12.05-26.43,23.26-5.35,11.81-7.09,25.34-6,38.2.78,9,3.79,17.72,4.3,26.77.52,9.55-3.06,17.89-10.71,23.68-13.77,10.43-31.79,10.37-47.73,15.07-7.82,2.31-15.53,5.82-21.14,11.9a34.14,34.14,0,0,0-8.94,22.16c-.52,16.58,8.49,32.28,16.9,45.93.87,1.41,3.09.12,2.22-1.3Z" transform="translate(-96.22 -196.8)"/></svg>